<?plantuml 1.2026.1?><svg xmlns="http://www.w3.org/2000/svg" xmlns:xlink="http://www.w3.org/1999/xlink" contentStyleType="text/css" data-diagram-type="DESCRIPTION" height="225px" preserveAspectRatio="none" style="width:986px;height:225px;background:#FFFFFF;" version="1.1" viewBox="0 0 986 225" width="986px" zoomAndPan="magnify"><defs/><g><!--cluster shard-0--><g class="cluster" data-qualified-name="shard-0" data-source-line="6" id="ent0004"><rect fill="none" height="160" rx="2.5" ry="2.5" style="stroke:#181818;stroke-width:1;" width="467.94" x="512.86" y="7"/><path d="M583.0846,7 L583.0846,16.2969 L573.0846,26.2969 L512.86,26.2969" fill="none" style="stroke:#181818;stroke-width:1;"/><text fill="#000000" font-family="sans-serif" font-size="14" font-weight="bold" lengthAdjust="spacing" textLength="60.2246" x="515.86" y="20.9951">shard-0</text></g><!--entity Replica0--><g class="entity" data-qualified-name="shard-0.Replica0" data-source-line="7" id="ent0005"><rect fill="#F1F1F1" height="36.2969" rx="2.5" ry="2.5" style="stroke:#181818;stroke-width:0.5;" width="81.2705" x="528.86" y="97.85"/><text fill="#000000" font-family="sans-serif" font-size="14" lengthAdjust="spacing" textLength="61.2705" x="538.86" y="120.8451">replica-0</text></g><!--entity Replica1--><g class="entity" data-qualified-name="shard-0.Replica1" data-source-line="8" id="ent0006"><rect fill="#F1F1F1" height="36.2969" rx="2.5" ry="2.5" style="stroke:#181818;stroke-width:0.5;" width="81.2705" x="883.53" y="69.85"/><text fill="#000000" font-family="sans-serif" font-size="14" lengthAdjust="spacing" textLength="61.2705" x="893.53" y="92.8451">replica-1</text></g><!--entity Caller--><g class="entity" data-qualified-name="Caller" data-source-line="4" id="ent0002"><ellipse cx="26.2515" cy="86.35" fill="#F1F1F1" rx="8" ry="8" style="stroke:#181818;stroke-width:0.5;"/><path d="M26.2515,94.35 L26.2515,121.35 M13.2515,102.35 L39.2515,102.35 M26.2515,121.35 L13.2515,136.35 M26.2515,121.35 L39.2515,136.35" fill="none" style="stroke:#181818;stroke-width:0.5;"/><text fill="#000000" font-family="sans-serif" font-size="14" lengthAdjust="spacing" textLength="40.5029" x="6" y="150.8451">Caller</text></g><!--entity BridgeClient--><g class="entity" data-qualified-name="BridgeClient" data-source-line="5" id="ent0003"><rect fill="#F1F1F1" height="36.2969" rx="2.5" ry="2.5" style="stroke:#181818;stroke-width:0.5;" width="175.3604" x="182.5" y="97.85"/><text fill="#000000" font-family="sans-serif" font-size="14" lengthAdjust="spacing" textLength="155.3604" x="192.5" y="120.8451">RpcOpnetBridgeClient</text></g><!--entity Job--><g class="entity" data-qualified-name="Job" data-source-line="12" id="ent0009"><rect fill="#F1F1F1" height="36.2969" rx="2.5" ry="2.5" style="stroke:#181818;stroke-width:0.5;" width="104.0684" x="872.13" y="182.85"/><text fill="#000000" font-family="sans-serif" font-size="14" lengthAdjust="spacing" textLength="84.0684" x="882.13" y="205.8451">Flow Job DG</text></g><!--link Replica0 to Replica1--><g class="link" data-entity-1="ent0005" data-entity-2="ent0006" data-link-type="dependency" data-source-line="9" id="lnk7"><path d="M616.464,121.8763 C669.804,127.7463 760.97,134 842.13,119 C855.91,116.46 864.7884,113.8713 877.6184,108.8113" fill="none" id="Replica0-Replica1" style="stroke:#181818;stroke-width:1;"/><polygon fill="#181818" points="610.5,121.22,619.0084,126.1805,615.47,121.7669,619.8835,118.2285,610.5,121.22" style="stroke:#181818;stroke-width:1;"/><polygon fill="#181818" points="883.2,106.61,873.3601,106.1909,878.5487,108.4444,876.2951,113.633,883.2,106.61" style="stroke:#181818;stroke-width:1;"/><text fill="#000000" font-family="sans-serif" font-size="13" lengthAdjust="spacing" textLength="115.0957" x="683.63" y="115.0669">peer coordination</text></g><!--link Replica0 to Replica1--><g class="link" data-entity-1="ent0005" data-entity-2="ent0006" data-link-type="dependency" data-source-line="10" id="lnk8"><path d="M610.33,104.12 C620,101.68 630.37,99.42 640.13,98 C726.02,85.54 822.0114,85.3815 877.0814,86.5615" fill="none" id="Replica0-to-Replica1" style="stroke:#181818;stroke-width:1;"/><polygon fill="#181818" points="883.08,86.69,874.1678,82.4981,878.0811,86.5829,873.9964,90.4963,883.08,86.69" style="stroke:#181818;stroke-width:1;"/><text fill="#000000" font-family="sans-serif" font-size="13" lengthAdjust="spacing" textLength="200.6875" x="641.13" y="83.0669">consume dedicated bridge link</text></g><!--link Caller to BridgeClient--><g class="link" data-entity-1="ent0002" data-entity-2="ent0003" data-link-type="dependency" data-source-line="14" id="lnk10"><path d="M46.64,116 C75.91,116 127.16,116 176.27,116" fill="none" id="Caller-to-BridgeClient" style="stroke:#181818;stroke-width:1;"/><polygon fill="#181818" points="182.27,116,173.27,112,177.27,116,173.27,120,182.27,116" style="stroke:#181818;stroke-width:1;"/><text fill="#000000" font-family="sans-serif" font-size="13" lengthAdjust="spacing" textLength="74.5786" x="77.5" y="112.0669">rpc request</text></g><!--link BridgeClient to Replica0--><g class="link" data-entity-1="ent0003" data-entity-2="ent0005" data-link-type="dependency" data-source-line="15" id="lnk11"><path d="M357.98,116 C414.37,116 479.21,116 522.65,116" fill="none" id="BridgeClient-to-Replica0" style="stroke:#181818;stroke-width:1;"/><polygon fill="#181818" points="528.65,116,519.65,112,523.65,116,519.65,120,528.65,116" style="stroke:#181818;stroke-width:1;"/><text fill="#000000" font-family="sans-serif" font-size="13" lengthAdjust="spacing" textLength="107.6182" x="388.86" y="112.0669">endpoint stream</text></g><!--link Replica0 to Job--><g class="link" data-entity-1="ent0005" data-entity-2="ent0009" data-link-type="dependency" data-source-line="16" id="lnk12"><path d="M599.31,134.56 C611.48,141.63 626.07,149.15 640.13,154 C718.3,180.96 808.1218,192.2092 865.8218,197.1392" fill="none" id="Replica0-to-Job" style="stroke:#181818;stroke-width:1;"/><polygon fill="#181818" points="871.8,197.65,863.1732,192.8983,866.8182,197.2243,862.4921,200.8693,871.8,197.65" style="stroke:#181818;stroke-width:1;"/><text fill="#000000" font-family="sans-serif" font-size="13" lengthAdjust="spacing" textLength="159.4087" x="661.63" y="150.0669">inject via ingress link ref</text></g><?plantuml-src RP51JWCn34NtEOKr-v6csmgne0WaDaZb16dYcPgcJd1S44BS7SzKL2bYvto__7mx2KS5pI0qxHKY2GQbpAuUY8iNVuIGZoKpihxePqAO0SzJGkTyq2omyIcXk0i6tRQ4vyAeTq9nmaqYKplm5Lh1ZMQEqDMzbzWF7NmvWCP4i2GAVkxOpUtvDFpFh5fcPSml3ZTzVtjfm1eAefX3baZibq4R-0yRCjUJHOmOJL6Ci5loGo8-kEzsueUKF-0fx-3-SObYfNFdnIokxU3cB2NO7jzEMDLTjPe4Wt78iMGolQgWFxghfFDpQo1-jG-1T_9MJeArBl7CVlm1?></g></svg>