<?plantuml 1.2026.1?><svg xmlns="http://www.w3.org/2000/svg" xmlns:xlink="http://www.w3.org/1999/xlink" contentStyleType="text/css" data-diagram-type="SEQUENCE" height="486px" preserveAspectRatio="none" style="width:523px;height:486px;background:#FFFFFF;" version="1.1" viewBox="0 0 523 486" width="523px" zoomAndPan="magnify"><defs/><g><g class="participant-lifeline" data-entity-uid="part1" data-qualified-name="Caller" id="part1-lifeline"><g><title>Caller</title><rect fill="#000000" fill-opacity="0.00000" height="324.3281" width="8" x="24.2515" y="81.2969"/><line style="stroke:#181818;stroke-width:0.5;stroke-dasharray:5,5;" x1="28" x2="28" y1="81.2969" y2="405.625"/></g></g><g class="participant-lifeline" data-entity-uid="part2" data-qualified-name="BridgeClient" id="part2-lifeline"><g><title>BridgeClient</title><rect fill="#000000" fill-opacity="0.00000" height="324.3281" width="8" x="107.5864" y="81.2969"/><line style="stroke:#181818;stroke-width:0.5;stroke-dasharray:5,5;" x1="111.5029" x2="111.5029" y1="81.2969" y2="405.625"/></g></g><g class="participant-lifeline" data-entity-uid="part3" data-qualified-name="ReplicaEndpoint" id="part3-lifeline"><g><title>ReplicaEndpoint</title><rect fill="#000000" fill-opacity="0.00000" height="324.3281" width="8" x="272.1553" y="81.2969"/><line style="stroke:#181818;stroke-width:0.5;stroke-dasharray:5,5;" x1="275.3589" x2="275.3589" y1="81.2969" y2="405.625"/></g></g><g class="participant-lifeline" data-entity-uid="part4" data-qualified-name="FlowServer" id="part4-lifeline"><g><title>FlowServer</title><rect fill="#000000" fill-opacity="0.00000" height="324.3281" width="8" x="398.9341" y="81.2969"/><line style="stroke:#181818;stroke-width:0.5;stroke-dasharray:5,5;" x1="402" x2="402" y1="81.2969" y2="405.625"/></g></g><g class="participant-lifeline" data-entity-uid="part5" data-qualified-name="OpNet" id="part5-lifeline"><g><title>OpNet</title><rect fill="#000000" fill-opacity="0.00000" height="324.3281" width="8" x="484.1089" y="81.2969"/><line style="stroke:#181818;stroke-width:0.5;stroke-dasharray:5,5;" x1="487.8682" x2="487.8682" y1="81.2969" y2="405.625"/></g></g><g class="participant participant-head" data-entity-uid="part1" data-qualified-name="Caller" id="part1-head"><text fill="#000000" font-family="sans-serif" font-size="14" lengthAdjust="spacing" textLength="40.5029" x="5" y="77.9951">Caller</text><ellipse cx="28.2515" cy="13.5" fill="#E2E2F0" rx="8" ry="8" style="stroke:#181818;stroke-width:0.5;"/><path d="M28.2515,21.5 L28.2515,48.5 M15.2515,29.5 L41.2515,29.5 M28.2515,48.5 L15.2515,63.5 M28.2515,48.5 L41.2515,63.5" fill="none" style="stroke:#181818;stroke-width:0.5;"/></g><g class="participant participant-tail" data-entity-uid="part1" data-qualified-name="Caller" id="part1-tail"><text fill="#000000" font-family="sans-serif" font-size="14" lengthAdjust="spacing" textLength="40.5029" x="5" y="417.6201">Caller</text><ellipse cx="28.2515" cy="429.4219" fill="#E2E2F0" rx="8" ry="8" style="stroke:#181818;stroke-width:0.5;"/><path d="M28.2515,437.4219 L28.2515,464.4219 M15.2515,445.4219 L41.2515,445.4219 M28.2515,464.4219 L15.2515,479.4219 M28.2515,464.4219 L41.2515,479.4219" fill="none" style="stroke:#181818;stroke-width:0.5;"/></g><g class="participant participant-head" data-entity-uid="part2" data-qualified-name="BridgeClient" id="part2-head"><rect fill="#E2E2F0" height="30.2969" rx="2.5" ry="2.5" style="stroke:#181818;stroke-width:0.5;" width="100.167" x="61.5029" y="50"/><text fill="#000000" font-family="sans-serif" font-size="14" lengthAdjust="spacing" textLength="86.167" x="68.5029" y="69.9951">BridgeClient</text></g><g class="participant participant-tail" data-entity-uid="part2" data-qualified-name="BridgeClient" id="part2-tail"><rect fill="#E2E2F0" height="30.2969" rx="2.5" ry="2.5" style="stroke:#181818;stroke-width:0.5;" width="100.167" x="61.5029" y="404.625"/><text fill="#000000" font-family="sans-serif" font-size="14" lengthAdjust="spacing" textLength="86.167" x="68.5029" y="424.6201">BridgeClient</text></g><g class="participant participant-head" data-entity-uid="part3" data-qualified-name="ReplicaEndpoint" id="part3-head"><rect fill="#E2E2F0" height="30.2969" rx="2.5" ry="2.5" style="stroke:#181818;stroke-width:0.5;" width="127.5928" x="212.3589" y="50"/><text fill="#000000" font-family="sans-serif" font-size="14" lengthAdjust="spacing" textLength="113.5928" x="219.3589" y="69.9951">ReplicaEndpoint</text></g><g class="participant participant-tail" data-entity-uid="part3" data-qualified-name="ReplicaEndpoint" id="part3-tail"><rect fill="#E2E2F0" height="30.2969" rx="2.5" ry="2.5" style="stroke:#181818;stroke-width:0.5;" width="127.5928" x="212.3589" y="404.625"/><text fill="#000000" font-family="sans-serif" font-size="14" lengthAdjust="spacing" textLength="113.5928" x="219.3589" y="424.6201">ReplicaEndpoint</text></g><g class="participant participant-head" data-entity-uid="part4" data-qualified-name="FlowServer" id="part4-head"><rect fill="#E2E2F0" height="30.2969" rx="2.5" ry="2.5" style="stroke:#181818;stroke-width:0.5;" width="91.8682" x="357" y="50"/><text fill="#000000" font-family="sans-serif" font-size="14" lengthAdjust="spacing" textLength="77.8682" x="364" y="69.9951">FlowServer</text></g><g class="participant participant-tail" data-entity-uid="part4" data-qualified-name="FlowServer" id="part4-tail"><rect fill="#E2E2F0" height="30.2969" rx="2.5" ry="2.5" style="stroke:#181818;stroke-width:0.5;" width="91.8682" x="357" y="404.625"/><text fill="#000000" font-family="sans-serif" font-size="14" lengthAdjust="spacing" textLength="77.8682" x="364" y="424.6201">FlowServer</text></g><g class="participant participant-head" data-entity-uid="part5" data-qualified-name="OpNet" id="part5-head"><rect fill="#E2E2F0" height="30.2969" rx="2.5" ry="2.5" style="stroke:#181818;stroke-width:0.5;" width="58.4814" x="458.8682" y="50"/><text fill="#000000" font-family="sans-serif" font-size="14" lengthAdjust="spacing" textLength="44.4814" x="465.8682" y="69.9951">OpNet</text></g><g class="participant participant-tail" data-entity-uid="part5" data-qualified-name="OpNet" id="part5-tail"><rect fill="#E2E2F0" height="30.2969" rx="2.5" ry="2.5" style="stroke:#181818;stroke-width:0.5;" width="58.4814" x="458.8682" y="404.625"/><text fill="#000000" font-family="sans-serif" font-size="14" lengthAdjust="spacing" textLength="44.4814" x="465.8682" y="424.6201">OpNet</text></g><g class="message" data-entity-1="part1" data-entity-2="part2" id="msg1"><polygon fill="#181818" points="99.5864,108.4297,109.5864,112.4297,99.5864,116.4297,103.5864,112.4297" style="stroke:#181818;stroke-width:1;"/><line style="stroke:#181818;stroke-width:1;" x1="28.2515" x2="105.5864" y1="112.4297" y2="112.4297"/><text fill="#000000" font-family="sans-serif" font-size="13" lengthAdjust="spacing" textLength="49.7021" x="35.2515" y="107.3638">request</text></g><g class="message" data-entity-1="part2" data-entity-2="part3" id="msg2"><polygon fill="#181818" points="264.1553,137.5625,274.1553,141.5625,264.1553,145.5625,268.1553,141.5625" style="stroke:#181818;stroke-width:1;"/><line style="stroke:#181818;stroke-width:1;" x1="111.5864" x2="270.1553" y1="141.5625" y2="141.5625"/><text fill="#000000" font-family="sans-serif" font-size="13" lengthAdjust="spacing" textLength="84.3921" x="118.5864" y="136.4966">hello(app_id)</text></g><g class="message" data-entity-1="part3" data-entity-2="part4" id="msg3"><polygon fill="#181818" points="390.9341,166.6953,400.9341,170.6953,390.9341,174.6953,394.9341,170.6953" style="stroke:#181818;stroke-width:1;"/><line style="stroke:#181818;stroke-width:1;" x1="276.1553" x2="396.9341" y1="170.6953" y2="170.6953"/><text fill="#000000" font-family="sans-serif" font-size="13" lengthAdjust="spacing" textLength="94.6626" x="283.1553" y="165.6294">ingress lookup</text></g><g class="message" data-entity-1="part4" data-entity-2="part3" id="msg4"><polygon fill="#181818" points="287.1553,195.8281,277.1553,199.8281,287.1553,203.8281,283.1553,199.8281" style="stroke:#181818;stroke-width:1;"/><line style="stroke:#181818;stroke-width:1;stroke-dasharray:2,2;" x1="281.1553" x2="401.9341" y1="199.8281" y2="199.8281"/><text fill="#000000" font-family="sans-serif" font-size="13" lengthAdjust="spacing" textLength="47.4106" x="293.1553" y="194.7622">link_ref</text></g><g class="message" data-entity-1="part2" data-entity-2="part3" id="msg5"><polygon fill="#181818" points="264.1553,224.9609,274.1553,228.9609,264.1553,232.9609,268.1553,228.9609" style="stroke:#181818;stroke-width:1;"/><line style="stroke:#181818;stroke-width:1;" x1="111.5864" x2="270.1553" y1="228.9609" y2="228.9609"/><text fill="#000000" font-family="sans-serif" font-size="13" lengthAdjust="spacing" textLength="76.0322" x="118.5864" y="223.895">api_request</text></g><g class="message" data-entity-1="part3" data-entity-2="part5" id="msg6"><polygon fill="#181818" points="476.1089,254.0938,486.1089,258.0938,476.1089,262.0938,480.1089,258.0938" style="stroke:#181818;stroke-width:1;"/><line style="stroke:#181818;stroke-width:1;" x1="276.1553" x2="482.1089" y1="258.0938" y2="258.0938"/><text fill="#000000" font-family="sans-serif" font-size="13" lengthAdjust="spacing" textLength="98.2617" x="283.1553" y="253.0278">inject message</text></g><g class="message" data-entity-1="part3" data-entity-2="part3" id="msg7"><line style="stroke:#181818;stroke-width:1;" x1="276.1553" x2="318.1553" y1="287.2266" y2="287.2266"/><line style="stroke:#181818;stroke-width:1;" x1="318.1553" x2="318.1553" y1="287.2266" y2="300.2266"/><line style="stroke:#181818;stroke-width:1;" x1="277.1553" x2="318.1553" y1="300.2266" y2="300.2266"/><polygon fill="#181818" points="287.1553,296.2266,277.1553,300.2266,287.1553,304.2266,283.1553,300.2266" style="stroke:#181818;stroke-width:1;"/><text fill="#000000" font-family="sans-serif" font-size="13" lengthAdjust="spacing" textLength="112.7788" x="283.1553" y="282.1606">wait for response</text></g><g class="message" data-entity-1="part3" data-entity-2="part2" id="msg8"><polygon fill="#181818" points="122.5864,325.3594,112.5864,329.3594,122.5864,333.3594,118.5864,329.3594" style="stroke:#181818;stroke-width:1;"/><line style="stroke:#181818;stroke-width:1;stroke-dasharray:2,2;" x1="116.5864" x2="275.1553" y1="329.3594" y2="329.3594"/><text fill="#000000" font-family="sans-serif" font-size="13" lengthAdjust="spacing" textLength="85.6616" x="128.5864" y="324.2935">api_response</text></g><g class="message" data-entity-1="part2" data-entity-2="part1" id="msg9"><polygon fill="#181818" points="39.2515,354.4922,29.2515,358.4922,39.2515,362.4922,35.2515,358.4922" style="stroke:#181818;stroke-width:1;"/><line style="stroke:#181818;stroke-width:1;stroke-dasharray:2,2;" x1="33.2515" x2="110.5864" y1="358.4922" y2="358.4922"/><text fill="#000000" font-family="sans-serif" font-size="13" lengthAdjust="spacing" textLength="59.3315" x="45.2515" y="353.4263">response</text></g><g class="message" data-entity-1="part2" data-entity-2="part3" id="msg10"><polygon fill="#181818" points="264.1553,383.625,274.1553,387.625,264.1553,391.625,268.1553,387.625" style="stroke:#181818;stroke-width:1;"/><line style="stroke:#181818;stroke-width:1;" x1="111.5864" x2="270.1553" y1="387.625" y2="387.625"/><text fill="#000000" font-family="sans-serif" font-size="13" lengthAdjust="spacing" textLength="140.5688" x="118.5864" y="382.5591">response_ack (async)</text></g><?plantuml-src ZP4z3i8m34RtdC8Z35o0WG448qXmWCfAJJ4rYKa2YDiJyIDe2H9hlkSlBmxQv0FCK8I2KGo9BIkw1DF0TKCpONAf4wn9XItENQsUUzb2_6L3uTphMkcIaZ6FMs0qwPJ3608TJnIJwHndh7TL9dSauWUeMd4zDFqyZxmDCisk2HGZYFVjISr7DYgs2xks2hJzGmILgvTsGUF-uhl1dco2GxR0XahaT_K5ES4s_qfsL-zYOUnxXG-V9z_Lp_1pysFuWPGqNcY5jeK1ngkpmni0?></g></svg>