<?plantuml 1.2026.1?><svg xmlns="http://www.w3.org/2000/svg" xmlns:xlink="http://www.w3.org/1999/xlink" contentStyleType="text/css" data-diagram-type="SEQUENCE" height="369px" preserveAspectRatio="none" style="width:550px;height:369px;background:#FFFFFF;" version="1.1" viewBox="0 0 550 369" width="550px" zoomAndPan="magnify"><defs/><g><g class="participant-lifeline" data-entity-uid="part1" data-qualified-name="ProducerClient" id="part1-lifeline"><g><title>Producer Client</title><rect fill="#000000" fill-opacity="0.00000" height="207.7969" width="8" x="57.7852" y="81.2969"/><line style="stroke:#181818;stroke-width:0.5;stroke-dasharray:5,5;" x1="61" x2="61" y1="81.2969" y2="289.0938"/></g></g><g class="participant-lifeline" data-entity-uid="part2" data-qualified-name="FlowServer" id="part2-lifeline"><g><title>FlowServer</title><rect fill="#000000" fill-opacity="0.00000" height="207.7969" width="8" x="237.709" y="81.2969"/><line style="stroke:#181818;stroke-width:0.5;stroke-dasharray:5,5;" x1="240.7749" x2="240.7749" y1="81.2969" y2="289.0938"/></g></g><g class="participant-lifeline" data-entity-uid="part3" data-qualified-name="OpNetManager" id="part3-lifeline"><g><title>OpNetManager</title><rect fill="#000000" fill-opacity="0.00000" height="207.7969" width="8" x="406.3594" y="81.2969"/><line style="stroke:#181818;stroke-width:0.5;stroke-dasharray:5,5;" x1="409.4355" x2="409.4355" y1="81.2969" y2="289.0938"/></g></g><g class="participant-lifeline" data-entity-uid="part4" data-qualified-name="Link" id="part4-lifeline"><g><title>Link</title><rect fill="#000000" fill-opacity="0.00000" height="207.7969" width="8" x="519.1758" y="81.2969"/><line style="stroke:#181818;stroke-width:0.5;stroke-dasharray:5,5;" x1="522.8408" x2="522.8408" y1="81.2969" y2="289.0938"/></g></g><g class="participant participant-head" data-entity-uid="part1" data-qualified-name="ProducerClient" id="part1-head"><text fill="#000000" font-family="sans-serif" font-size="14" lengthAdjust="spacing" textLength="107.5703" x="5" y="77.9951">Producer Client</text><ellipse cx="61.7852" cy="13.5" fill="#E2E2F0" rx="8" ry="8" style="stroke:#181818;stroke-width:0.5;"/><path d="M61.7852,21.5 L61.7852,48.5 M48.7852,29.5 L74.7852,29.5 M61.7852,48.5 L48.7852,63.5 M61.7852,48.5 L74.7852,63.5" fill="none" style="stroke:#181818;stroke-width:0.5;"/></g><g class="participant participant-tail" data-entity-uid="part1" data-qualified-name="ProducerClient" id="part1-tail"><text fill="#000000" font-family="sans-serif" font-size="14" lengthAdjust="spacing" textLength="107.5703" x="5" y="301.0889">Producer Client</text><ellipse cx="61.7852" cy="312.8906" fill="#E2E2F0" rx="8" ry="8" style="stroke:#181818;stroke-width:0.5;"/><path d="M61.7852,320.8906 L61.7852,347.8906 M48.7852,328.8906 L74.7852,328.8906 M61.7852,347.8906 L48.7852,362.8906 M61.7852,347.8906 L74.7852,362.8906" fill="none" style="stroke:#181818;stroke-width:0.5;"/></g><g class="participant participant-head" data-entity-uid="part2" data-qualified-name="FlowServer" id="part2-head"><rect fill="#E2E2F0" height="30.2969" rx="2.5" ry="2.5" style="stroke:#181818;stroke-width:0.5;" width="91.8682" x="195.7749" y="50"/><text fill="#000000" font-family="sans-serif" font-size="14" lengthAdjust="spacing" textLength="77.8682" x="202.7749" y="69.9951">FlowServer</text></g><g class="participant participant-tail" data-entity-uid="part2" data-qualified-name="FlowServer" id="part2-tail"><rect fill="#E2E2F0" height="30.2969" rx="2.5" ry="2.5" style="stroke:#181818;stroke-width:0.5;" width="91.8682" x="195.7749" y="288.0938"/><text fill="#000000" font-family="sans-serif" font-size="14" lengthAdjust="spacing" textLength="77.8682" x="202.7749" y="308.0889">FlowServer</text></g><g class="participant participant-head" data-entity-uid="part3" data-qualified-name="OpNetManager" id="part3-head"><rect fill="#E2E2F0" height="30.2969" rx="2.5" ry="2.5" style="stroke:#181818;stroke-width:0.5;" width="119.8477" x="350.4355" y="50"/><text fill="#000000" font-family="sans-serif" font-size="14" lengthAdjust="spacing" textLength="105.8477" x="357.4355" y="69.9951">OpNetManager</text></g><g class="participant participant-tail" data-entity-uid="part3" data-qualified-name="OpNetManager" id="part3-tail"><rect fill="#E2E2F0" height="30.2969" rx="2.5" ry="2.5" style="stroke:#181818;stroke-width:0.5;" width="119.8477" x="350.4355" y="288.0938"/><text fill="#000000" font-family="sans-serif" font-size="14" lengthAdjust="spacing" textLength="105.8477" x="357.4355" y="308.0889">OpNetManager</text></g><g class="participant participant-head" data-entity-uid="part4" data-qualified-name="Link" id="part4-head"><rect fill="#E2E2F0" height="30.2969" rx="2.5" ry="2.5" style="stroke:#181818;stroke-width:0.5;" width="42.6699" x="501.8408" y="50"/><text fill="#000000" font-family="sans-serif" font-size="14" lengthAdjust="spacing" textLength="28.6699" x="508.8408" y="69.9951">Link</text></g><g class="participant participant-tail" data-entity-uid="part4" data-qualified-name="Link" id="part4-tail"><rect fill="#E2E2F0" height="30.2969" rx="2.5" ry="2.5" style="stroke:#181818;stroke-width:0.5;" width="42.6699" x="501.8408" y="288.0938"/><text fill="#000000" font-family="sans-serif" font-size="14" lengthAdjust="spacing" textLength="28.6699" x="508.8408" y="308.0889">Link</text></g><g class="message" data-entity-1="part1" data-entity-2="part2" id="msg1"><polygon fill="#181818" points="229.709,108.4297,239.709,112.4297,229.709,116.4297,233.709,112.4297" style="stroke:#181818;stroke-width:1;"/><line style="stroke:#181818;stroke-width:1;" x1="61.7852" x2="235.709" y1="112.4297" y2="112.4297"/><text fill="#000000" font-family="sans-serif" font-size="13" lengthAdjust="spacing" textLength="92.9043" x="68.7852" y="107.3638">InjectMessage</text></g><g class="message" data-entity-1="part2" data-entity-2="part2" id="msg2"><line style="stroke:#181818;stroke-width:1;" x1="241.709" x2="283.709" y1="141.5625" y2="141.5625"/><line style="stroke:#181818;stroke-width:1;" x1="283.709" x2="283.709" y1="141.5625" y2="154.5625"/><line style="stroke:#181818;stroke-width:1;" x1="242.709" x2="283.709" y1="154.5625" y2="154.5625"/><polygon fill="#181818" points="252.709,150.5625,242.709,154.5625,252.709,158.5625,248.709,154.5625" style="stroke:#181818;stroke-width:1;"/><text fill="#000000" font-family="sans-serif" font-size="13" lengthAdjust="spacing" textLength="134.0562" x="248.709" y="136.4966">lookup job + link_ref</text></g><g class="message" data-entity-1="part2" data-entity-2="part3" id="msg3"><polygon fill="#181818" points="398.3594,179.6953,408.3594,183.6953,398.3594,187.6953,402.3594,183.6953" style="stroke:#181818;stroke-width:1;"/><line style="stroke:#181818;stroke-width:1;" x1="241.709" x2="404.3594" y1="183.6953" y2="183.6953"/><text fill="#000000" font-family="sans-serif" font-size="13" lengthAdjust="spacing" textLength="144.6504" x="248.709" y="178.6294">InjectMessageIntoLink</text></g><g class="message" data-entity-1="part3" data-entity-2="part4" id="msg4"><polygon fill="#181818" points="511.1758,208.8281,521.1758,212.8281,511.1758,216.8281,515.1758,212.8281" style="stroke:#181818;stroke-width:1;"/><line style="stroke:#181818;stroke-width:1;" x1="410.3594" x2="517.1758" y1="212.8281" y2="212.8281"/><text fill="#000000" font-family="sans-serif" font-size="13" lengthAdjust="spacing" textLength="88.8164" x="417.3594" y="207.7622">deliver to link</text></g><g class="message" data-entity-1="part3" data-entity-2="part2" id="msg5"><polygon fill="#181818" points="252.709,237.9609,242.709,241.9609,252.709,245.9609,248.709,241.9609" style="stroke:#181818;stroke-width:1;"/><line style="stroke:#181818;stroke-width:1;stroke-dasharray:2,2;" x1="246.709" x2="409.3594" y1="241.9609" y2="241.9609"/><text fill="#000000" font-family="sans-serif" font-size="13" lengthAdjust="spacing" textLength="89.667" x="258.709" y="236.895">Result(ok=...)</text></g><g class="message" data-entity-1="part2" data-entity-2="part1" id="msg6"><polygon fill="#181818" points="72.7852,267.0938,62.7852,271.0938,72.7852,275.0938,68.7852,271.0938" style="stroke:#181818;stroke-width:1;"/><line style="stroke:#181818;stroke-width:1;stroke-dasharray:2,2;" x1="66.7852" x2="240.709" y1="271.0938" y2="271.0938"/><text fill="#000000" font-family="sans-serif" font-size="13" lengthAdjust="spacing" textLength="155.9238" x="78.7852" y="266.0278">InjectMessageResponse</text></g><?plantuml-src NOz12i8m44NtFSNGbIBs089k1A5WLVG04jDHqePCIAPwVTEAqCpsp_kFFqep1IWlWTf1Ou2zDUYu11NXd_sYmgl0HXkl7CF1qkU6uOqXYy_-XDmefrxYS3IkBufS2ElTp0CRg5s7cXkCCVMBsKc2bgWVF7JqW1NOfBu7V8h2V8fqruvfMfH1gJI62MxHcb73DDa59jTSCGwM5zHlgwfQPZCIAduMIrBNaulu1G00?></g></svg>