<?plantuml 1.2026.1?><svg xmlns="http://www.w3.org/2000/svg" xmlns:xlink="http://www.w3.org/1999/xlink" contentStyleType="text/css" data-diagram-type="SEQUENCE" height="428px" preserveAspectRatio="none" style="width:539px;height:428px;background:#FFFFFF;" version="1.1" viewBox="0 0 539 428" width="539px" zoomAndPan="magnify"><defs/><g><g class="participant-lifeline" data-entity-uid="part1" data-qualified-name="Client" id="part1-lifeline"><g><title>Client</title><rect fill="#000000" fill-opacity="0.00000" height="266.0625" width="8" x="24.2651" y="81.2969"/><line style="stroke:#181818;stroke-width:0.5;stroke-dasharray:5,5;" x1="28" x2="28" y1="81.2969" y2="347.3594"/></g></g><g class="participant-lifeline" data-entity-uid="part2" data-qualified-name="FlowServer" id="part2-lifeline"><g><title>FlowServer</title><rect fill="#000000" fill-opacity="0.00000" height="266.0625" width="8" x="112.3447" y="81.2969"/><line style="stroke:#181818;stroke-width:0.5;stroke-dasharray:5,5;" x1="115.4106" x2="115.4106" y1="81.2969" y2="347.3594"/></g></g><g class="participant-lifeline" data-entity-uid="part3" data-qualified-name="CRDB" id="part3-lifeline"><g><title>CRDB</title><rect fill="#000000" fill-opacity="0.00000" height="266.0625" width="8" x="278.4941" y="81.2969"/><line style="stroke:#181818;stroke-width:0.5;stroke-dasharray:5,5;" x1="281.5503" x2="281.5503" y1="81.2969" y2="347.3594"/></g></g><g class="participant-lifeline" data-entity-uid="part4" data-qualified-name="ExecutorController" id="part4-lifeline"><g><title>Executor Controller</title><rect fill="#000000" fill-opacity="0.00000" height="266.0625" width="8" x="386.312" y="81.2969"/><line style="stroke:#181818;stroke-width:0.5;stroke-dasharray:5,5;" x1="389.438" x2="389.438" y1="81.2969" y2="347.3594"/></g></g><g class="participant-lifeline" data-entity-uid="part5" data-qualified-name="OpNet" id="part5-lifeline"><g><title>OpNet</title><rect fill="#000000" fill-opacity="0.00000" height="266.0625" width="8" x="500.4268" y="81.2969"/><line style="stroke:#181818;stroke-width:0.5;stroke-dasharray:5,5;" x1="504.186" x2="504.186" y1="81.2969" y2="347.3594"/></g></g><g class="participant participant-head" data-entity-uid="part1" data-qualified-name="Client" id="part1-head"><text fill="#000000" font-family="sans-serif" font-size="14" lengthAdjust="spacing" textLength="40.5303" x="5" y="77.9951">Client</text><ellipse cx="28.2651" cy="13.5" fill="#E2E2F0" rx="8" ry="8" style="stroke:#181818;stroke-width:0.5;"/><path d="M28.2651,21.5 L28.2651,48.5 M15.2651,29.5 L41.2651,29.5 M28.2651,48.5 L15.2651,63.5 M28.2651,48.5 L41.2651,63.5" fill="none" style="stroke:#181818;stroke-width:0.5;"/></g><g class="participant participant-tail" data-entity-uid="part1" data-qualified-name="Client" id="part1-tail"><text fill="#000000" font-family="sans-serif" font-size="14" lengthAdjust="spacing" textLength="40.5303" x="5" y="359.3545">Client</text><ellipse cx="28.2651" cy="371.1563" fill="#E2E2F0" rx="8" ry="8" style="stroke:#181818;stroke-width:0.5;"/><path d="M28.2651,379.1563 L28.2651,406.1563 M15.2651,387.1563 L41.2651,387.1563 M28.2651,406.1563 L15.2651,421.1563 M28.2651,406.1563 L41.2651,421.1563" fill="none" style="stroke:#181818;stroke-width:0.5;"/></g><g class="participant participant-head" data-entity-uid="part2" data-qualified-name="FlowServer" id="part2-head"><rect fill="#E2E2F0" height="30.2969" rx="2.5" ry="2.5" style="stroke:#181818;stroke-width:0.5;" width="91.8682" x="70.4106" y="50"/><text fill="#000000" font-family="sans-serif" font-size="14" lengthAdjust="spacing" textLength="77.8682" x="77.4106" y="69.9951">FlowServer</text></g><g class="participant participant-tail" data-entity-uid="part2" data-qualified-name="FlowServer" id="part2-tail"><rect fill="#E2E2F0" height="30.2969" rx="2.5" ry="2.5" style="stroke:#181818;stroke-width:0.5;" width="91.8682" x="70.4106" y="346.3594"/><text fill="#000000" font-family="sans-serif" font-size="14" lengthAdjust="spacing" textLength="77.8682" x="77.4106" y="366.3545">FlowServer</text></g><g class="participant participant-head" data-entity-uid="part3" data-qualified-name="CRDB" id="part3-head"><text fill="#000000" font-family="sans-serif" font-size="14" lengthAdjust="spacing" textLength="39.8877" x="259.5503" y="77.9951">CRDB</text><path d="M264.4941,29 C264.4941,19 282.4941,19 282.4941,19 C282.4941,19 300.4941,19 300.4941,29 L300.4941,55 C300.4941,65 282.4941,65 282.4941,65 C282.4941,65 264.4941,65 264.4941,55 L264.4941,29" fill="#E2E2F0" style="stroke:#181818;stroke-width:0.5;"/><path d="M264.4941,29 C264.4941,39 282.4941,39 282.4941,39 C282.4941,39 300.4941,39 300.4941,29" fill="none" style="stroke:#181818;stroke-width:0.5;"/></g><g class="participant participant-tail" data-entity-uid="part3" data-qualified-name="CRDB" id="part3-tail"><text fill="#000000" font-family="sans-serif" font-size="14" lengthAdjust="spacing" textLength="39.8877" x="259.5503" y="359.3545">CRDB</text><path d="M264.4941,372.6563 C264.4941,362.6563 282.4941,362.6563 282.4941,362.6563 C282.4941,362.6563 300.4941,362.6563 300.4941,372.6563 L300.4941,398.6563 C300.4941,408.6563 282.4941,408.6563 282.4941,408.6563 C282.4941,408.6563 264.4941,408.6563 264.4941,398.6563 L264.4941,372.6563" fill="#E2E2F0" style="stroke:#181818;stroke-width:0.5;"/><path d="M264.4941,372.6563 C264.4941,382.6563 282.4941,382.6563 282.4941,382.6563 C282.4941,382.6563 300.4941,382.6563 300.4941,372.6563" fill="none" style="stroke:#181818;stroke-width:0.5;"/></g><g class="participant participant-head" data-entity-uid="part4" data-qualified-name="ExecutorController" id="part4-head"><rect fill="#E2E2F0" height="30.2969" rx="2.5" ry="2.5" style="stroke:#181818;stroke-width:0.5;" width="149.748" x="315.438" y="50"/><text fill="#000000" font-family="sans-serif" font-size="14" lengthAdjust="spacing" textLength="135.748" x="322.438" y="69.9951">Executor Controller</text></g><g class="participant participant-tail" data-entity-uid="part4" data-qualified-name="ExecutorController" id="part4-tail"><rect fill="#E2E2F0" height="30.2969" rx="2.5" ry="2.5" style="stroke:#181818;stroke-width:0.5;" width="149.748" x="315.438" y="346.3594"/><text fill="#000000" font-family="sans-serif" font-size="14" lengthAdjust="spacing" textLength="135.748" x="322.438" y="366.3545">Executor Controller</text></g><g class="participant participant-head" data-entity-uid="part5" data-qualified-name="OpNet" id="part5-head"><rect fill="#E2E2F0" height="30.2969" rx="2.5" ry="2.5" style="stroke:#181818;stroke-width:0.5;" width="58.4814" x="475.186" y="50"/><text fill="#000000" font-family="sans-serif" font-size="14" lengthAdjust="spacing" textLength="44.4814" x="482.186" y="69.9951">OpNet</text></g><g class="participant participant-tail" data-entity-uid="part5" data-qualified-name="OpNet" id="part5-tail"><rect fill="#E2E2F0" height="30.2969" rx="2.5" ry="2.5" style="stroke:#181818;stroke-width:0.5;" width="58.4814" x="475.186" y="346.3594"/><text fill="#000000" font-family="sans-serif" font-size="14" lengthAdjust="spacing" textLength="44.4814" x="482.186" y="366.3545">OpNet</text></g><g class="message" data-entity-1="part1" data-entity-2="part2" id="msg1"><polygon fill="#181818" points="104.3447,108.4297,114.3447,112.4297,104.3447,116.4297,108.3447,112.4297" style="stroke:#181818;stroke-width:1;"/><line style="stroke:#181818;stroke-width:1;" x1="28.2651" x2="110.3447" y1="112.4297" y2="112.4297"/><text fill="#000000" font-family="sans-serif" font-size="13" lengthAdjust="spacing" textLength="64.0796" x="35.2651" y="107.3638">CancelJob</text></g><g class="message" data-entity-1="part2" data-entity-2="part3" id="msg2"><polygon fill="#181818" points="270.4941,137.5625,280.4941,141.5625,270.4941,145.5625,274.4941,141.5625" style="stroke:#181818;stroke-width:1;"/><line style="stroke:#181818;stroke-width:1;" x1="116.3447" x2="276.4941" y1="141.5625" y2="141.5625"/><text fill="#000000" font-family="sans-serif" font-size="13" lengthAdjust="spacing" textLength="142.1494" x="123.3447" y="136.4966">set CANCEL_PENDING</text></g><g class="message" data-entity-1="part2" data-entity-2="part1" id="msg3"><polygon fill="#181818" points="39.2651,166.6953,29.2651,170.6953,39.2651,174.6953,35.2651,170.6953" style="stroke:#181818;stroke-width:1;"/><line style="stroke:#181818;stroke-width:1;stroke-dasharray:2,2;" x1="33.2651" x2="115.3447" y1="170.6953" y2="170.6953"/><text fill="#000000" font-family="sans-serif" font-size="13" lengthAdjust="spacing" textLength="59.3315" x="45.2651" y="165.6294">response</text></g><g class="message" data-entity-1="part2" data-entity-2="part2" id="msg4"><line style="stroke:#181818;stroke-width:1;" x1="116.3447" x2="158.3447" y1="199.8281" y2="199.8281"/><line style="stroke:#181818;stroke-width:1;" x1="158.3447" x2="158.3447" y1="199.8281" y2="212.8281"/><line style="stroke:#181818;stroke-width:1;" x1="117.3447" x2="158.3447" y1="212.8281" y2="212.8281"/><polygon fill="#181818" points="127.3447,208.8281,117.3447,212.8281,127.3447,216.8281,123.3447,212.8281" style="stroke:#181818;stroke-width:1;"/><text fill="#000000" font-family="sans-serif" font-size="13" lengthAdjust="spacing" textLength="124.5854" x="123.3447" y="194.7622">create-loop finalize</text></g><g class="message" data-entity-1="part2" data-entity-2="part3" id="msg5"><polygon fill="#181818" points="270.4941,237.9609,280.4941,241.9609,270.4941,245.9609,274.4941,241.9609" style="stroke:#181818;stroke-width:1;"/><line style="stroke:#181818;stroke-width:1;" x1="116.3447" x2="276.4941" y1="241.9609" y2="241.9609"/><text fill="#000000" font-family="sans-serif" font-size="13" lengthAdjust="spacing" textLength="75.791" x="123.3447" y="236.895">delete rows</text></g><g class="message" data-entity-1="part2" data-entity-2="part4" id="msg6"><polygon fill="#181818" points="378.312,267.0938,388.312,271.0938,378.312,275.0938,382.312,271.0938" style="stroke:#181818;stroke-width:1;"/><line style="stroke:#181818;stroke-width:1;" x1="116.3447" x2="384.312" y1="271.0938" y2="271.0938"/><text fill="#000000" font-family="sans-serif" font-size="13" lengthAdjust="spacing" textLength="92.6123" x="123.3447" y="266.0278">Destroy execs</text></g><g class="message" data-entity-1="part2" data-entity-2="part5" id="msg7"><polygon fill="#181818" points="492.4268,296.2266,502.4268,300.2266,492.4268,304.2266,496.4268,300.2266" style="stroke:#181818;stroke-width:1;"/><line style="stroke:#181818;stroke-width:1;" x1="116.3447" x2="498.4268" y1="300.2266" y2="300.2266"/><text fill="#000000" font-family="sans-serif" font-size="13" lengthAdjust="spacing" textLength="185.0088" x="123.3447" y="295.1606">Destroy controller resources</text></g><g class="message" data-entity-1="part2" data-entity-2="part3" id="msg8"><polygon fill="#181818" points="270.4941,325.3594,280.4941,329.3594,270.4941,333.3594,274.4941,329.3594" style="stroke:#181818;stroke-width:1;"/><line style="stroke:#181818;stroke-width:1;" x1="116.3447" x2="276.4941" y1="329.3594" y2="329.3594"/><text fill="#000000" font-family="sans-serif" font-size="13" lengthAdjust="spacing" textLength="128.5337" x="123.3447" y="324.2935">status=CANCELLED</text></g><?plantuml-src TP3XIWCn48J_vocM_kyB51GqTugbdA8F8DjqX8EG3PizgpwzQG_ftQa_C_lDJ7Ovc2Zvs2EPowpMXpvpChgBSdo1laFTWOttN43-kRcTGQls0s4u9qWobHYXA-92F_f5dlaUSmTpRgobzVMaZJRaEGN4hUpTHAxGgRwE2upyJUVRtUjJspKFtVsCEu5ZxeOK9KigM0JDseA23UieakcjJnpxB_nTV424WLIEPG7yNhVY3KfzV1BgS6au7s32X8kn_ba63IZ_R6ziGxaQ3x1hcsy0?></g></svg>