<?plantuml 1.2026.1?><svg xmlns="http://www.w3.org/2000/svg" xmlns:xlink="http://www.w3.org/1999/xlink" contentStyleType="text/css" data-diagram-type="DESCRIPTION" height="509px" preserveAspectRatio="none" style="width:1403px;height:509px;background:#FFFFFF;" version="1.1" viewBox="0 0 1403 509" width="1403px" zoomAndPan="magnify"><defs/><g><!--cluster Lumeflow Control Plane--><g class="cluster" data-qualified-name="Lumeflow Control Plane" data-source-line="4" id="ent0002"><rect fill="none" height="113" rx="2.5" ry="2.5" style="stroke:#181818;stroke-width:1;" width="1353.8" x="7" y="7"/><text fill="#000000" font-family="sans-serif" font-size="14" font-weight="bold" lengthAdjust="spacing" textLength="188.002" x="589.899" y="21.9951">Lumeflow Control Plane</text></g><!--cluster Executor Runtime Plane--><g class="cluster" data-qualified-name="Executor Runtime Plane" data-source-line="11" id="ent0007"><rect fill="none" height="211" rx="2.5" ry="2.5" style="stroke:#181818;stroke-width:1;" width="205.93" x="1175.68" y="291"/><text fill="#000000" font-family="sans-serif" font-size="14" font-weight="bold" lengthAdjust="spacing" textLength="189.5742" x="1183.8579" y="305.9951">Executor Runtime Plane</text></g><!--entity Flow--><g class="entity" data-qualified-name="Lumeflow Control Plane.Flow" data-source-line="5" id="ent0003"><rect fill="#F1F1F1" height="62.5938" rx="2.5" ry="2.5" style="stroke:#181818;stroke-width:0.5;" width="183.2471" x="23" y="41.7"/><rect fill="#F1F1F1" height="10" style="stroke:#181818;stroke-width:0.5;" width="15" x="186.2471" y="46.7"/><rect fill="#F1F1F1" height="2" style="stroke:#181818;stroke-width:0.5;" width="4" x="184.2471" y="48.7"/><rect fill="#F1F1F1" height="2" style="stroke:#181818;stroke-width:0.5;" width="4" x="184.2471" y="52.7"/><text fill="#000000" font-family="sans-serif" font-size="14" lengthAdjust="spacing" textLength="82.3184" x="38" y="74.6951">Flow Server</text><text fill="#000000" font-family="sans-serif" font-size="14" lengthAdjust="spacing" textLength="143.2471" x="38" y="90.992">(semantic authority)</text></g><!--entity ExecCtl--><g class="entity" data-qualified-name="Lumeflow Control Plane.ExecCtl" data-source-line="6" id="ent0004"><rect fill="#F1F1F1" height="46.2969" rx="2.5" ry="2.5" style="stroke:#181818;stroke-width:0.5;" width="175.748" x="353.25" y="45.85"/><rect fill="#F1F1F1" height="10" style="stroke:#181818;stroke-width:0.5;" width="15" x="508.998" y="50.85"/><rect fill="#F1F1F1" height="2" style="stroke:#181818;stroke-width:0.5;" width="4" x="506.998" y="52.85"/><rect fill="#F1F1F1" height="2" style="stroke:#181818;stroke-width:0.5;" width="4" x="506.998" y="56.85"/><text fill="#000000" font-family="sans-serif" font-size="14" lengthAdjust="spacing" textLength="135.748" x="368.25" y="78.8451">Executor Controller</text></g><!--entity SecCtl--><g class="entity" data-qualified-name="Lumeflow Control Plane.SecCtl" data-source-line="7" id="ent0005"><rect fill="#F1F1F1" height="62.5938" rx="2.5" ry="2.5" style="stroke:#181818;stroke-width:0.5;" width="225.4385" x="715" y="41.7"/><rect fill="#F1F1F1" height="10" style="stroke:#181818;stroke-width:0.5;" width="15" x="920.4385" y="46.7"/><rect fill="#F1F1F1" height="2" style="stroke:#181818;stroke-width:0.5;" width="4" x="918.4385" y="48.7"/><rect fill="#F1F1F1" height="2" style="stroke:#181818;stroke-width:0.5;" width="4" x="918.4385" y="52.7"/><text fill="#000000" font-family="sans-serif" font-size="14" lengthAdjust="spacing" textLength="131.1133" x="730" y="74.6951">Security Controller</text><text fill="#000000" font-family="sans-serif" font-size="14" lengthAdjust="spacing" textLength="185.4385" x="730" y="90.992">(issuance + authorization)</text></g><!--entity Authz--><g class="entity" data-qualified-name="Lumeflow Control Plane.Authz" data-source-line="8" id="ent0006"><rect fill="#F1F1F1" height="62.5938" rx="2.5" ry="2.5" style="stroke:#181818;stroke-width:0.5;" width="132.3057" x="1212.49" y="41.7"/><rect fill="#F1F1F1" height="10" style="stroke:#181818;stroke-width:0.5;" width="15" x="1324.7957" y="46.7"/><rect fill="#F1F1F1" height="2" style="stroke:#181818;stroke-width:0.5;" width="4" x="1322.7957" y="48.7"/><rect fill="#F1F1F1" height="2" style="stroke:#181818;stroke-width:0.5;" width="4" x="1322.7957" y="52.7"/><text fill="#000000" font-family="sans-serif" font-size="14" lengthAdjust="spacing" textLength="59.9033" x="1227.49" y="74.6951">AuthZed</text><text fill="#000000" font-family="sans-serif" font-size="14" lengthAdjust="spacing" textLength="92.3057" x="1227.49" y="90.992">(policy store)</text></g><!--entity Cartond--><g class="entity" data-qualified-name="Executor Runtime Plane.Cartond" data-source-line="12" id="ent0008"><rect fill="#F1F1F1" height="62.5938" rx="2.5" ry="2.5" style="stroke:#181818;stroke-width:0.5;" width="173.9229" x="1191.68" y="423.7"/><rect fill="#F1F1F1" height="10" style="stroke:#181818;stroke-width:0.5;" width="15" x="1345.6029" y="428.7"/><rect fill="#F1F1F1" height="2" style="stroke:#181818;stroke-width:0.5;" width="4" x="1343.6029" y="430.7"/><rect fill="#F1F1F1" height="2" style="stroke:#181818;stroke-width:0.5;" width="4" x="1343.6029" y="434.7"/><text fill="#000000" font-family="sans-serif" font-size="14" lengthAdjust="spacing" textLength="53.8467" x="1206.68" y="456.6951">cartond</text><text fill="#000000" font-family="sans-serif" font-size="14" lengthAdjust="spacing" textLength="133.9229" x="1206.68" y="472.992">(runtime mediator)</text></g><!--entity Operator--><g class="entity" data-qualified-name="Executor Runtime Plane.Operator" data-source-line="13" id="ent0009"><rect fill="#F1F1F1" height="62.5938" rx="2.5" ry="2.5" style="stroke:#181818;stroke-width:0.5;" width="157.7217" x="1199.78" y="325.7"/><rect fill="#F1F1F1" height="10" style="stroke:#181818;stroke-width:0.5;" width="15" x="1337.5017" y="330.7"/><rect fill="#F1F1F1" height="2" style="stroke:#181818;stroke-width:0.5;" width="4" x="1335.5017" y="332.7"/><rect fill="#F1F1F1" height="2" style="stroke:#181818;stroke-width:0.5;" width="4" x="1335.5017" y="336.7"/><text fill="#000000" font-family="sans-serif" font-size="14" lengthAdjust="spacing" textLength="117.7217" x="1214.78" y="358.6951">Operator / Agent</text><text fill="#000000" font-family="sans-serif" font-size="14" lengthAdjust="spacing" textLength="74.7236" x="1214.78" y="374.992">(workload)</text></g><!--entity Secrets--><g class="entity" data-qualified-name="Secrets" data-source-line="16" id="ent0010"><path d="M1170.43,149.35 C1170.43,139.35 1278.6419,139.35 1278.6419,139.35 C1278.6419,139.35 1386.8538,139.35 1386.8538,149.35 L1386.8538,174.6469 C1386.8538,184.6469 1278.6419,184.6469 1278.6419,184.6469 C1278.6419,184.6469 1170.43,184.6469 1170.43,174.6469 L1170.43,149.35" fill="#F1F1F1" style="stroke:#181818;stroke-width:0.5;"/><path d="M1170.43,149.35 C1170.43,159.35 1278.6419,159.35 1278.6419,159.35 C1278.6419,159.35 1386.8538,159.35 1386.8538,149.35" fill="none" style="stroke:#181818;stroke-width:0.5;"/><text fill="#000000" font-family="sans-serif" font-size="14" lengthAdjust="spacing" textLength="196.4238" x="1180.43" y="176.3451">Secrets / Delegated Identity</text></g><g class="entity" data-qualified-name="GMN19" data-source-line="28" id="ent0020"><path d="M1176.56,219.3 L1176.56,274.6984 L1380.7216,274.6984 L1380.7216,229.3 L1370.7216,219.3 L1176.56,219.3" fill="#FEFFDD" style="stroke:#181818;stroke-width:0.5;"/><path d="M1370.7216,219.3 L1370.7216,229.3 L1380.7216,229.3 L1370.7216,219.3" fill="#FEFFDD" style="stroke:#181818;stroke-width:1;"/><text fill="#000000" font-family="sans-serif" font-size="13" lengthAdjust="spacing" textLength="128.4385" x="1182.56" y="236.3669">Identity-based trust</text><text fill="#000000" font-family="sans-serif" font-size="13" lengthAdjust="spacing" textLength="176.6743" x="1182.56" y="251.4997">executor identity (runtime)</text><text fill="#000000" font-family="sans-serif" font-size="13" lengthAdjust="spacing" textLength="183.1616" x="1182.56" y="266.6325">operator identity (workload)</text></g><!--link Flow to ExecCtl--><g class="link" data-entity-1="ent0003" data-entity-2="ent0004" data-link-type="dependency" data-source-line="18" id="lnk11"><path d="M206.45,71.88 C252.29,71.32 301.6405,70.7041 346.9605,70.1441" fill="none" id="Flow-to-ExecCtl" style="stroke:#181818;stroke-width:1;"/><polygon fill="#181818" points="352.96,70.07,343.9113,66.1815,347.9604,70.1318,344.0101,74.1809,352.96,70.07" style="stroke:#181818;stroke-width:1;"/><text fill="#000000" font-family="sans-serif" font-size="13" lengthAdjust="spacing" textLength="85.8584" x="237.25" y="67.0669">launch intent</text></g><!--link ExecCtl to SecCtl--><g class="link" data-entity-1="ent0004" data-entity-2="ent0005" data-link-type="dependency" data-source-line="19" id="lnk12"><path d="M529.39,69.91 C584.24,70.48 649.5403,71.158 708.5703,71.768" fill="none" id="ExecCtl-to-SecCtl" style="stroke:#181818;stroke-width:1;"/><polygon fill="#181818" points="714.57,71.83,705.6118,67.7372,709.5703,71.7783,705.5291,75.7368,714.57,71.83" style="stroke:#181818;stroke-width:1;"/><text fill="#000000" font-family="sans-serif" font-size="13" lengthAdjust="spacing" textLength="124.8901" x="560" y="67.0669">pre-authorize tuple</text></g><!--link Cartond to SecCtl--><g class="link" data-entity-1="ent0008" data-entity-2="ent0005" data-link-type="dependency" data-source-line="20" id="lnk13"><path d="M1191.26,480.94 C1124.93,495.33 1034.2,502.47 970.43,458 C851.7,375.18 832.4061,187.1854 829.3961,110.7454" fill="none" id="Cartond-to-SecCtl" style="stroke:#181818;stroke-width:1;"/><polygon fill="#181818" points="829.16,104.75,825.5172,113.9004,829.3567,109.7461,833.511,113.5856,829.16,104.75" style="stroke:#181818;stroke-width:1;"/><text fill="#000000" font-family="sans-serif" font-size="13" lengthAdjust="spacing" textLength="139.4644" x="985.93" y="454.0669">request operator cert</text></g><!--link SecCtl to Cartond--><g class="link" data-entity-1="ent0005" data-entity-2="ent0008" data-link-type="dependency" data-source-line="21" id="lnk14"><path d="M832.42,104.78 C841.99,171.44 873.96,325.97 970.43,402 C979.17,408.89 1097.5983,427.9072 1185.3783,441.2672" fill="none" id="SecCtl-to-Cartond" style="stroke:#181818;stroke-width:1;"/><polygon fill="#181818" points="1191.31,442.17,1183.0143,436.8613,1186.3669,441.4177,1181.8106,444.7703,1191.31,442.17" style="stroke:#181818;stroke-width:1;"/><text fill="#000000" font-family="sans-serif" font-size="13" lengthAdjust="spacing" textLength="159.0278" x="975.93" y="398.0669">short-lived operator cert</text></g><!--link Operator to SecCtl--><g class="link" data-entity-1="ent0009" data-entity-2="ent0005" data-link-type="dependency" data-source-line="22" id="lnk15"><path d="M1199.41,334.57 C1134.33,313.56 1041.24,277.9 970.43,228 C921.25,193.35 880.1854,143.7809 854.6454,109.5109" fill="none" id="Operator-to-SecCtl" style="stroke:#181818;stroke-width:1;"/><polygon fill="#181818" points="851.06,104.7,853.2308,114.3066,854.0478,108.7091,859.6454,109.5261,851.06,104.7" style="stroke:#181818;stroke-width:1;"/><text fill="#000000" font-family="sans-serif" font-size="13" lengthAdjust="spacing" textLength="168.7461" x="971.43" y="224.0669">mTLS as operator identity</text></g><!--link SecCtl to Operator--><g class="link" data-entity-1="ent0005" data-entity-2="ent0009" data-link-type="dependency" data-source-line="25" id="lnk18"><path d="M835,104.4 C848.42,162.27 885.85,284.79 970.43,339 C1038.47,382.6 1127.4004,381.7359 1193.6504,373.0959" fill="none" id="SecCtl-to-Operator" style="stroke:#181818;stroke-width:1;"/><polygon fill="#181818" points="1199.6,372.32,1190.1583,369.5175,1194.642,372.9666,1191.1929,377.4503,1199.6,372.32" style="stroke:#181818;stroke-width:1;"/><text fill="#000000" font-family="sans-serif" font-size="13" lengthAdjust="spacing" textLength="132.9897" x="989.43" y="335.0669">authorized response</text></g><!--link SecCtl to Authz--><g class="link" data-entity-1="ent0005" data-entity-2="ent0006" data-link-type="dependency" data-source-line="23" id="lnk16"><path d="M940.84,73 C1026.28,73 1134.99,73 1206.07,73" fill="none" id="SecCtl-to-Authz" style="stroke:#181818;stroke-width:1;"/><polygon fill="#181818" points="1212.07,73,1203.07,69,1207.07,73,1203.07,77,1212.07,73" style="stroke:#181818;stroke-width:1;"/><text fill="#000000" font-family="sans-serif" font-size="13" lengthAdjust="spacing" textLength="98.9727" x="1006.43" y="69.0669">evaluate policy</text></g><!--link SecCtl to Secrets--><g class="link" data-entity-1="ent0005" data-entity-2="ent0010" data-link-type="dependency" data-source-line="24" id="lnk17"><path d="M940.84,95.23 C1010.96,109.13 1094.9046,125.7731 1164.1546,139.5031" fill="none" id="SecCtl-to-Secrets" style="stroke:#181818;stroke-width:1;"/><polygon fill="#181818" points="1170.04,140.67,1161.9898,134.996,1165.1355,139.6976,1160.4339,142.8433,1170.04,140.67" style="stroke:#181818;stroke-width:1;"/><text fill="#000000" font-family="sans-serif" font-size="13" lengthAdjust="spacing" textLength="166.1753" x="972.43" y="98.0669">read secret or mint token</text></g><!--link SecCtl to GMN19--><g class="link" data-entity-1="ent0005" data-entity-2="ent0020" data-link-type="association" data-source-line="28" id="lnk21"><path d="M889.69,104.74 C914.44,117.08 943.49,130.89 970.43,142 C1041.56,171.34 1124.18,199.24 1185.81,218.9" fill="none" id="SecCtl-GMN19" style="stroke:#181818;stroke-width:1;stroke-dasharray:7,7;"/></g><?plantuml-src PP9FZzD03CNlyocidbYXY7iFIAi24j9A8CA9FmUJkEceavdWyRJi8huxTjF9DjfR6__y_Fp6-UZZX8mZv0FswUpZ07iCcLoWlO0aO3yS17hFr8bFqJdxWN4819k7Cj8-f3FiKXHE0Ju7ZBI1lmxW-mShjCGduX_nLQOHe_WEiCWXiPV7kv-06Omo-lqVweeahbA1-5Atxpi9XhHAMECDei8-vuAn8tXTfP_GZCxoxT9zhyLlr6l7b8Bl7Y7hD9efgpsvVwlT5aDVYleUQRLRXomfcXXVgoFr7XMV1NTptT1F4x4Lu0tS3nH5Uyw9Zo5XFxCLiFaz2lx2hEFLE9DaxNf7WGOKwk5Zh_qQmEQwcG7ENN9kchSrAjX2m1Ax0_Wesk3gTsFQYanCJSsBGCeKo5rThq6ctuMoGAfxTCJYscV9shNL4qeiJV0dzRh6bn1MqkFNXzPMMLX_NV1M_l8s2jC9Gz4OO7w-MwHcPMQnXtpv2wetQW9wmqUAj_XYPhjSZ1fcobEAUlWk9fqodttQrmkgsJVsF3q8booEwerKur3luSwzM0gUtzsHvcLZ_WC0?></g></svg>