<?plantuml 1.2026.1?><svg xmlns="http://www.w3.org/2000/svg" xmlns:xlink="http://www.w3.org/1999/xlink" contentStyleType="text/css" data-diagram-type="DESCRIPTION" height="241px" preserveAspectRatio="none" style="width:1000px;height:241px;background:#FFFFFF;" version="1.1" viewBox="0 0 1000 241" width="1000px" zoomAndPan="magnify"><defs/><g><!--entity Client--><g class="entity" data-qualified-name="Client" data-source-line="4" id="ent0002"><ellipse cx="62.6426" cy="83.5" fill="#F1F1F1" rx="8" ry="8" style="stroke:#181818;stroke-width:0.5;"/><path d="M62.6426,91.5 L62.6426,118.5 M49.6426,99.5 L75.6426,99.5 M62.6426,118.5 L49.6426,133.5 M62.6426,118.5 L75.6426,133.5" fill="none" style="stroke:#181818;stroke-width:0.5;"/><text fill="#000000" font-family="sans-serif" font-size="14" lengthAdjust="spacing" textLength="113.2852" x="6" y="147.9951">Lumeflow User /</text><text fill="#000000" font-family="sans-serif" font-size="14" lengthAdjust="spacing" textLength="95.8945" x="6" y="164.292">Control Client</text></g><!--entity Flow--><g class="entity" data-qualified-name="Flow" data-source-line="5" id="ent0003"><rect fill="#F1F1F1" height="52.5938" rx="2.5" ry="2.5" style="stroke:#181818;stroke-width:0.5;" width="143.1494" x="408.29" y="95"/><text fill="#000000" font-family="sans-serif" font-size="14" lengthAdjust="spacing" textLength="82.3184" x="418.29" y="117.9951">Flow Server</text><text fill="#000000" font-family="sans-serif" font-size="14" lengthAdjust="spacing" textLength="123.1494" x="418.29" y="134.292">(job orchestrator)</text></g><!--entity OpNet--><g class="entity" data-qualified-name="OpNet" data-source-line="6" id="ent0004"><rect fill="#F1F1F1" height="52.5938" rx="2.5" ry="2.5" style="stroke:#181818;stroke-width:0.5;" width="119.7705" x="630.42" y="7"/><text fill="#000000" font-family="sans-serif" font-size="14" lengthAdjust="spacing" textLength="94.8418" x="640.42" y="29.9951">OpNet Server</text><text fill="#000000" font-family="sans-serif" font-size="14" lengthAdjust="spacing" textLength="99.7705" x="640.42" y="46.292">(mgr+control)</text></g><!--entity Exec--><g class="entity" data-qualified-name="Exec" data-source-line="7" id="ent0005"><rect fill="#F1F1F1" height="52.5938" rx="2.5" ry="2.5" style="stroke:#181818;stroke-width:0.5;" width="155.748" x="612.43" y="95"/><text fill="#000000" font-family="sans-serif" font-size="14" lengthAdjust="spacing" textLength="135.748" x="622.43" y="117.9951">Executor Controller</text><text fill="#000000" font-family="sans-serif" font-size="14" lengthAdjust="spacing" textLength="82.2021" x="622.43" y="134.292">(launch/kill)</text></g><!--entity Cas--><g class="entity" data-qualified-name="Cas" data-source-line="8" id="ent0006"><rect fill="#F1F1F1" height="52.5938" rx="2.5" ry="2.5" style="stroke:#181818;stroke-width:0.5;" width="105.0801" x="637.77" y="183"/><text fill="#000000" font-family="sans-serif" font-size="14" lengthAdjust="spacing" textLength="84.998" x="647.77" y="205.9951">Sidecar CAS</text><text fill="#000000" font-family="sans-serif" font-size="14" lengthAdjust="spacing" textLength="85.0801" x="647.77" y="222.292">(artifact ref)</text></g><!--entity Operators--><g class="entity" data-qualified-name="Operators" data-source-line="9" id="ent0007"><path d="M839.2504,99.3888 C842.1657,93.0105 846.5866,93.3209 850.7447,98.1095 C853.7793,93.2102 859.0047,92.3972 862.5303,97.5329 C866.5966,92.1295 872.8622,92.944 875.809,98.8476 C878.0281,92.834 883.1537,93.8399 886.3329,97.8384 C890.6567,91.0595 896.6447,92.2307 900.3393,98.5132 C902.3203,92.165 907.5994,91.1932 911.5342,96.6624 C915.7734,90.536 919.921,91.2903 923.5302,97.2859 C927.8535,92.3204 932.5368,92.4153 936.2729,97.9955 C940.1392,93.2486 944.257,92.4672 947.3607,98.7613 C951.3876,92.7327 957.3212,92.4411 961.1528,98.9757 C964.1203,93.7925 969.1247,93.5239 972.4637,98.5646 C976.8255,91.8905 982.3595,92.6761 985.5491,99.6856 C990.636,102.9284 991.0712,107.8943 985.6901,111.2645 C991.788,113.0043 991.8023,118.2978 987.2746,121.6576 C993.3883,125.5835 992.5531,131.5015 986.64,134.8488 C990.9248,139.6387 989.6681,143.4775 983.8623,145.6794 C980.8842,151.4765 976.5597,150.8132 973.034,146.252 C969.2183,152.7669 964.9694,151.4366 961.0909,146.3166 C958.8567,154.0606 952.6111,154.963 947.6963,148.9211 C944.5504,154.3147 938.9339,155.2241 935.9591,148.7518 C933.6989,155.9065 928.055,157.0007 923.6016,150.7777 C919.3447,157.1458 914.986,156.82 910.7703,150.7354 C907.3178,155.7141 902.3667,154.8043 899.7418,149.8194 C895.2541,155.3978 889.0224,155.1933 886.3143,147.955 C883.0795,153.0514 879.1683,152.2675 875.9689,147.9163 C871.0073,154.3128 866.2858,154.0419 861.9756,147.2265 C858.1972,152.3032 853.7672,151.7622 850.7945,146.3663 C846.8216,152.701 840.5497,151.4217 837.4238,145.4463 C830.6362,143.3006 828.9444,139.9831 833.5951,134.0085 C826.9742,130.8713 826.0213,126.9634 831.292,121.6162 C826.736,117.6055 827.6836,113.3569 833.2516,111.2624 C828.9374,104.5291 831.7495,100.1528 839.2504,99.3888" fill="#F1F1F1" style="stroke:#181818;stroke-width:0.5;"/><text fill="#000000" font-family="sans-serif" font-size="14" lengthAdjust="spacing" textLength="132.4053" x="844.18" y="117.9951">Running Operators</text><text fill="#000000" font-family="sans-serif" font-size="14" lengthAdjust="spacing" textLength="86.8438" x="844.18" y="134.292">(via sidecar)</text></g><!--link Client to Flow--><g class="link" data-entity-1="ent0002" data-entity-2="ent0003" data-link-type="dependency" data-source-line="11" id="lnk8"><path d="M119.64,121.29 C194.24,121.29 320.26,121.29 401.79,121.29" fill="none" id="Client-to-Flow" style="stroke:#181818;stroke-width:1;"/><polygon fill="#181818" points="407.79,121.29,398.79,117.29,402.79,121.29,398.79,125.29,407.79,121.29" style="stroke:#181818;stroke-width:1;"/><text fill="#000000" font-family="sans-serif" font-size="13" lengthAdjust="spacing" textLength="227.8745" x="150.29" y="102.3569">SubmitJob / StartJob / GetJobStatus</text><text fill="#000000" font-family="sans-serif" font-size="13" lengthAdjust="spacing" textLength="204.9976" x="161.7285" y="117.4897">CancelJob / List / InjectMessage</text></g><!--link Flow to OpNet--><g class="link" data-entity-1="ent0003" data-entity-2="ent0004" data-link-type="dependency" data-source-line="12" id="lnk9"><path d="M544.25,94.53 C571.56,83 597.7826,71.9341 624.6126,60.6041" fill="none" id="Flow-to-OpNet" style="stroke:#181818;stroke-width:1;"/><polygon fill="#181818" points="630.14,58.27,620.2929,58.0863,625.5339,60.2151,623.405,65.4561,630.14,58.27" style="stroke:#181818;stroke-width:1;"/></g><!--link Flow to Exec--><g class="link" data-entity-1="ent0003" data-entity-2="ent0005" data-link-type="dependency" data-source-line="13" id="lnk10"><path d="M551.72,121.29 C571.2,121.29 586.41,121.29 606.21,121.29" fill="none" id="Flow-to-Exec" style="stroke:#181818;stroke-width:1;"/><polygon fill="#181818" points="612.21,121.29,603.21,117.29,607.21,121.29,603.21,125.29,612.21,121.29" style="stroke:#181818;stroke-width:1;"/></g><!--link Flow to Cas--><g class="link" data-entity-1="ent0003" data-entity-2="ent0006" data-link-type="dependency" data-source-line="14" id="lnk11"><path d="M544.25,148.05 C574.08,160.65 603.6731,173.1347 631.8831,185.0547" fill="none" id="Flow-to-Cas" style="stroke:#181818;stroke-width:1;"/><polygon fill="#181818" points="637.41,187.39,630.6766,180.2024,632.8043,185.4439,627.5628,187.5716,637.41,187.39" style="stroke:#181818;stroke-width:1;"/></g><!--link OpNet to Operators--><g class="link" data-entity-1="ent0004" data-entity-2="ent0007" data-link-type="dependency" data-source-line="15" id="lnk12"><path d="M750.61,57.22 C775.33,67.2 798.8254,76.6861 825.2854,87.3561" fill="none" id="OpNet-to-Operators" style="stroke:#181818;stroke-width:1;"/><polygon fill="#181818" points="830.85,89.6,823.999,82.5244,826.2128,87.7301,821.0071,89.9438,830.85,89.6" style="stroke:#181818;stroke-width:1;"/></g><!--link Exec to Operators--><g class="link" data-entity-1="ent0005" data-entity-2="ent0007" data-link-type="dependency" data-source-line="16" id="lnk13"><path d="M768.5,121.29 C788.11,121.29 803.22,121.29 822.98,121.29" fill="none" id="Exec-to-Operators" style="stroke:#181818;stroke-width:1;"/><polygon fill="#181818" points="828.98,121.29,819.98,117.29,823.98,121.29,819.98,125.29,828.98,121.29" style="stroke:#181818;stroke-width:1;"/></g><!--link Cas to Operators--><g class="link" data-entity-1="ent0006" data-entity-2="ent0007" data-link-type="dependency" data-source-line="17" id="lnk14"><path d="M743.27,188.33 C769.47,177.75 796.2364,166.9564 825.3864,155.1864" fill="none" id="Cas-to-Operators" style="stroke:#181818;stroke-width:1;"/><polygon fill="#181818" points="830.95,152.94,821.107,152.6006,826.3137,154.812,824.1022,160.0187,830.95,152.94" style="stroke:#181818;stroke-width:1;"/></g><?plantuml-src NL71JiCm3BtdAwoUG6ZQdGCIgW0D3P2ekEsIPMwNBNMcn1dmzpX9DmQdElPxpy-lSM_fe8CUmVZnu0c9E_vs204DQneSAeSz0ti8TjWoR6oUM4zAQSC-GBDC8_REVy97n03p5RMUE7W7hRCYru2EKwdEEw1vp8mEmn73YgvsVWq-c2r63bfKhmihOouvRuTNv5_IE8GRKtTLV9bV4Xw-qAHiShBa2i_fH6OxtrityJBiajRP3HejhFjEu3gmxULMYQIl-5P7PPnF6sZU4v6bGLPZCHw5SBGQOfKu-Pg6IjKWO3QxAzV1BNHfFLf-bW3cqB4ig-KJva8Qd4IprMJGrSdIHfRFWdRo8rumHZsWAc9PjMPmVfRJpgzil8POeITR6VMl9T2_dHy0?></g></svg>