<?plantuml 1.2026.1?><svg xmlns="http://www.w3.org/2000/svg" xmlns:xlink="http://www.w3.org/1999/xlink" contentStyleType="text/css" data-diagram-type="DESCRIPTION" height="685px" preserveAspectRatio="none" style="width:560px;height:685px;background:#FFFFFF;" version="1.1" viewBox="0 0 560 685" width="560px" zoomAndPan="magnify"><defs/><g><!--cluster NS--><g class="cluster" data-qualified-name="NS" data-source-line="4" id="ent0002"><polygon fill="none" points="16,16,26,6,543.42,6,543.42,658,533.42,668,16,668,16,16" style="stroke:#181818;stroke-width:1;"/><line style="stroke:#181818;stroke-width:1;" x1="533.42" x2="543.42" y1="16" y2="6"/><line style="stroke:#181818;stroke-width:1;" x1="16" x2="533.42" y1="16" y2="16"/><line style="stroke:#181818;stroke-width:1;" x1="533.42" x2="533.42" y1="16" y2="668"/><text fill="#000000" font-family="sans-serif" font-size="14" font-weight="bold" lengthAdjust="spacing" textLength="96.4414" x="227.4893" y="31.9951">Namespace:</text><text fill="#000000" font-family="sans-serif" font-size="14" font-weight="bold" lengthAdjust="spacing" textLength="275.9531" x="137.7334" y="48.292">lumeflow-local (or lumeflow-demo)</text></g><!--cluster NodePort Services--><g class="cluster" data-qualified-name="NS.NodePort Services" data-source-line="5" id="ent0003"><path d="M42.5,70 L189.2354,70 A3.75,3.75 0 0 1 191.7354,72.5 L198.7354,92.2969 L516.92,92.2969 A2.5,2.5 0 0 1 519.42,94.7969 L519.42,394.5 A2.5,2.5 0 0 1 516.92,397 L42.5,397 A2.5,2.5 0 0 1 40,394.5 L40,72.5 A2.5,2.5 0 0 1 42.5,70" fill="none" style="stroke:#000000;stroke-width:1.5;"/><line style="stroke:#000000;stroke-width:1.5;" x1="40" x2="198.7354" y1="92.2969" y2="92.2969"/><text fill="#000000" font-family="sans-serif" font-size="14" font-weight="bold" lengthAdjust="spacing" textLength="145.7354" x="44" y="84.9951">NodePort Services</text></g><!--cluster Cluster-Internal Services--><g class="cluster" data-qualified-name="NS.Cluster-Internal Services" data-source-line="14" id="ent0010"><path d="M44.32,421 L241.4841,421 A3.75,3.75 0 0 1 243.9841,423.5 L250.9841,443.2969 L448.8,443.2969 A2.5,2.5 0 0 1 451.3,445.7969 L451.3,641.5 A2.5,2.5 0 0 1 448.8,644 L44.32,644 A2.5,2.5 0 0 1 41.82,641.5 L41.82,423.5 A2.5,2.5 0 0 1 44.32,421" fill="none" style="stroke:#000000;stroke-width:1.5;"/><line style="stroke:#000000;stroke-width:1.5;" x1="41.82" x2="250.9841" y1="443.2969" y2="443.2969"/><text fill="#000000" font-family="sans-serif" font-size="14" font-weight="bold" lengthAdjust="spacing" textLength="196.1641" x="45.82" y="435.9951">Cluster-Internal Services</text></g><!--entity FlowNp--><g class="entity" data-qualified-name="NS.NodePort Services.FlowNp" data-source-line="6" id="ent0004"><rect fill="#F1F1F1" height="68.8906" rx="2.5" ry="2.5" style="stroke:#181818;stroke-width:0.5;" width="109.127" x="85.74" y="312.55"/><text fill="#000000" font-family="sans-serif" font-size="14" lengthAdjust="spacing" textLength="82.3184" x="95.74" y="335.5451">Flow Server</text><text fill="#000000" font-family="sans-serif" font-size="14" lengthAdjust="spacing" textLength="89.127" x="95.74" y="351.842">(flow-server)</text><text fill="#000000" font-family="sans-serif" font-size="14" lengthAdjust="spacing" textLength="49.2529" x="95.74" y="368.1389">:30070</text></g><!--entity OpNetNp--><g class="entity" data-qualified-name="NS.NodePort Services.OpNetNp" data-source-line="7" id="ent0005"><rect fill="#F1F1F1" height="68.8906" rx="2.5" ry="2.5" style="stroke:#181818;stroke-width:0.5;" width="120.7207" x="79.94" y="208.55"/><text fill="#000000" font-family="sans-serif" font-size="14" lengthAdjust="spacing" textLength="94.8418" x="89.94" y="231.5451">OpNet Server</text><text fill="#000000" font-family="sans-serif" font-size="14" lengthAdjust="spacing" textLength="100.7207" x="89.94" y="247.842">(opnet-server)</text><text fill="#000000" font-family="sans-serif" font-size="14" lengthAdjust="spacing" textLength="49.2529" x="89.94" y="264.1389">:30052</text></g><!--entity ConfigNp--><g class="entity" data-qualified-name="NS.NodePort Services.ConfigNp" data-source-line="8" id="ent0006"><rect fill="#F1F1F1" height="68.8906" rx="2.5" ry="2.5" style="stroke:#181818;stroke-width:0.5;" width="168.5996" x="56" y="104.55"/><text fill="#000000" font-family="sans-serif" font-size="14" lengthAdjust="spacing" textLength="142.2764" x="66" y="127.5451">Config Query Server</text><text fill="#000000" font-family="sans-serif" font-size="14" lengthAdjust="spacing" textLength="148.5996" x="66" y="143.842">(config-query-server)</text><text fill="#000000" font-family="sans-serif" font-size="14" lengthAdjust="spacing" textLength="49.2529" x="66" y="160.1389">:30074</text></g><!--entity BridgeR0--><g class="entity" data-qualified-name="NS.NodePort Services.BridgeR0" data-source-line="9" id="ent0007"><rect fill="#F1F1F1" height="68.8906" rx="2.5" ry="2.5" style="stroke:#181818;stroke-width:0.5;" width="218.8232" x="284.6" y="312.55"/><text fill="#000000" font-family="sans-serif" font-size="14" lengthAdjust="spacing" textLength="198.8232" x="294.6" y="335.5451">RPC OpNet Bridge shard0 r0</text><text fill="#000000" font-family="sans-serif" font-size="14" lengthAdjust="spacing" textLength="128.7139" x="294.6" y="351.842">(rpc-opnet-bridge)</text><text fill="#000000" font-family="sans-serif" font-size="14" lengthAdjust="spacing" textLength="49.2529" x="294.6" y="368.1389">:30080</text></g><!--entity BridgeR1--><g class="entity" data-qualified-name="NS.NodePort Services.BridgeR1" data-source-line="10" id="ent0008"><rect fill="#F1F1F1" height="68.8906" rx="2.5" ry="2.5" style="stroke:#181818;stroke-width:0.5;" width="218.8232" x="284.6" y="208.55"/><text fill="#000000" font-family="sans-serif" font-size="14" lengthAdjust="spacing" textLength="198.8232" x="294.6" y="231.5451">RPC OpNet Bridge shard0 r1</text><text fill="#000000" font-family="sans-serif" font-size="14" lengthAdjust="spacing" textLength="128.7139" x="294.6" y="247.842">(rpc-opnet-bridge)</text><text fill="#000000" font-family="sans-serif" font-size="14" lengthAdjust="spacing" textLength="49.2529" x="294.6" y="264.1389">:30081</text></g><!--entity OTel--><g class="entity" data-qualified-name="NS.NodePort Services.OTel" data-source-line="11" id="ent0009"><rect fill="#F1F1F1" height="52.5938" rx="2.5" ry="2.5" style="stroke:#181818;stroke-width:0.5;" width="187.9453" x="300.04" y="120.7"/><text fill="#000000" font-family="sans-serif" font-size="14" lengthAdjust="spacing" textLength="167.9453" x="310.04" y="143.6951">Operator OTEL collector</text><text fill="#000000" font-family="sans-serif" font-size="14" lengthAdjust="spacing" textLength="49.2529" x="310.04" y="159.992">:30317</text></g><!--entity ExecInternal--><g class="entity" data-qualified-name="NS.Cluster-Internal Services.ExecInternal" data-source-line="15" id="ent0011"><rect fill="#F1F1F1" height="68.8906" rx="2.5" ry="2.5" style="stroke:#181818;stroke-width:0.5;" width="164.9629" x="57.82" y="559.55"/><text fill="#000000" font-family="sans-serif" font-size="14" lengthAdjust="spacing" textLength="135.748" x="67.82" y="582.5451">Executor Controller</text><text fill="#000000" font-family="sans-serif" font-size="14" lengthAdjust="spacing" textLength="144.9629" x="67.82" y="598.842">(executor-controller)</text><text fill="#000000" font-family="sans-serif" font-size="14" lengthAdjust="spacing" textLength="49.2529" x="67.82" y="615.1389">:50071</text></g><!--entity CasInternal--><g class="entity" data-qualified-name="NS.Cluster-Internal Services.CasInternal" data-source-line="16" id="ent0012"><rect fill="#F1F1F1" height="68.8906" rx="2.5" ry="2.5" style="stroke:#181818;stroke-width:0.5;" width="110.2617" x="85.17" y="455.55"/><text fill="#000000" font-family="sans-serif" font-size="14" lengthAdjust="spacing" textLength="84.998" x="95.17" y="478.5451">Sidecar CAS</text><text fill="#000000" font-family="sans-serif" font-size="14" lengthAdjust="spacing" textLength="90.2617" x="95.17" y="494.842">(sidecar-cas)</text><text fill="#000000" font-family="sans-serif" font-size="14" lengthAdjust="spacing" textLength="49.2529" x="95.17" y="511.1389">:50073</text></g><!--entity FlowDb--><g class="entity" data-qualified-name="NS.Cluster-Internal Services.FlowDb" data-source-line="17" id="ent0013"><path d="M352.72,560.05 C352.72,550.05 394.0115,550.05 394.0115,550.05 C394.0115,550.05 435.303,550.05 435.303,560.05 L435.303,617.9406 C435.303,627.9406 394.0115,627.9406 394.0115,627.9406 C394.0115,627.9406 352.72,627.9406 352.72,617.9406 L352.72,560.05" fill="#F1F1F1" style="stroke:#181818;stroke-width:0.5;"/><path d="M352.72,560.05 C352.72,570.05 394.0115,570.05 394.0115,570.05 C394.0115,570.05 435.303,570.05 435.303,560.05" fill="none" style="stroke:#181818;stroke-width:0.5;"/><text fill="#000000" font-family="sans-serif" font-size="14" lengthAdjust="spacing" textLength="56.793" x="362.72" y="587.0451">Flow DB</text><text fill="#000000" font-family="sans-serif" font-size="14" lengthAdjust="spacing" textLength="62.583" x="362.72" y="603.342">(flow-db)</text><text fill="#000000" font-family="sans-serif" font-size="14" lengthAdjust="spacing" textLength="49.2529" x="362.72" y="619.6389">:26257</text></g><?plantuml-src ZPBBRi8m44Nt-OfHLh28b40f5Rlog5If2fHqoSPnXX3XsAbjsgAAVwyVl95GDvOyutjcV6VKkk8DaQG6Akf6SEGwqrk6895gmak60SEb1Yr0LkLAGr7PJ2Lu471H88GfgL4rXE9WmTccnYKJtn4Jb31e2Gd7K86rQ8T05AGP_0O0HhCcfIKOpan83HdAhugY2bqUJYr1-68GBezomLiEgDojlU23RXptOuUspzBcMZnjKjGdjMWuwajvh-Faxk6jVYJuiYhXVODoUy9G5uq-RVIgcGT7yx9Rt7msyfLWAAl2EA1MH1OnoDXGPKCZts3kadlaa_-V5ypZVoEJEyZa79dSceQIQ3F1wSVapIGOCtCNqccxIT_xzO7Cw7R1-JX7RACqokYLcvERDRWpriaFqeqjOhpIqjQmpk8-6j5ZrFRSCyxwdgtiWBz6PbM1b1ZYSsPGojyYIjG1qVN38Ug2K11DSg9mlshZuM7DYjmAEu-TNl-uOkFS_Nht1m00?></g></svg>