<?plantuml 1.2026.1?><svg xmlns="http://www.w3.org/2000/svg" xmlns:xlink="http://www.w3.org/1999/xlink" contentStyleType="text/css" data-diagram-type="SEQUENCE" height="313px" preserveAspectRatio="none" style="width:423px;height:313px;background:#FFFFFF;" version="1.1" viewBox="0 0 423 313" width="423px" zoomAndPan="magnify"><defs/><g><g class="participant-lifeline" data-entity-uid="part1" data-qualified-name="Client" id="part1-lifeline"><g><title>Client</title><rect fill="#000000" fill-opacity="0.00000" height="151.6641" width="8" x="24.2651" y="81.2969"/><line style="stroke:#181818;stroke-width:0.5;stroke-dasharray:5,5;" x1="28" x2="28" y1="81.2969" y2="232.9609"/></g></g><g class="participant-lifeline" data-entity-uid="part2" data-qualified-name="FlowServer" id="part2-lifeline"><g><title>FlowServer</title><rect fill="#000000" fill-opacity="0.00000" height="151.6641" width="8" x="114.4204" y="81.2969"/><line style="stroke:#181818;stroke-width:0.5;stroke-dasharray:5,5;" x1="117.4863" x2="117.4863" y1="81.2969" y2="232.9609"/></g></g><g class="participant-lifeline" data-entity-uid="part3" data-qualified-name="CRDB" id="part3-lifeline"><g><title>CRDB</title><rect fill="#000000" fill-opacity="0.00000" height="151.6641" width="8" x="265.1006" y="81.2969"/><line style="stroke:#181818;stroke-width:0.5;stroke-dasharray:5,5;" x1="268.1567" x2="268.1567" y1="81.2969" y2="232.9609"/></g></g><g class="participant-lifeline" data-entity-uid="part4" data-qualified-name="Validator" id="part4-lifeline"><g><title>Flow Validator</title><rect fill="#000000" fill-opacity="0.00000" height="151.6641" width="8" x="357.04" y="81.2969"/><line style="stroke:#181818;stroke-width:0.5;stroke-dasharray:5,5;" x1="360.23" x2="360.23" y1="81.2969" y2="232.9609"/></g></g><g class="participant participant-head" data-entity-uid="part1" data-qualified-name="Client" id="part1-head"><text fill="#000000" font-family="sans-serif" font-size="14" lengthAdjust="spacing" textLength="40.5303" x="5" y="77.9951">Client</text><ellipse cx="28.2651" cy="13.5" fill="#E2E2F0" rx="8" ry="8" style="stroke:#181818;stroke-width:0.5;"/><path d="M28.2651,21.5 L28.2651,48.5 M15.2651,29.5 L41.2651,29.5 M28.2651,48.5 L15.2651,63.5 M28.2651,48.5 L41.2651,63.5" fill="none" style="stroke:#181818;stroke-width:0.5;"/></g><g class="participant participant-tail" data-entity-uid="part1" data-qualified-name="Client" id="part1-tail"><text fill="#000000" font-family="sans-serif" font-size="14" lengthAdjust="spacing" textLength="40.5303" x="5" y="244.9561">Client</text><ellipse cx="28.2651" cy="256.7578" fill="#E2E2F0" rx="8" ry="8" style="stroke:#181818;stroke-width:0.5;"/><path d="M28.2651,264.7578 L28.2651,291.7578 M15.2651,272.7578 L41.2651,272.7578 M28.2651,291.7578 L15.2651,306.7578 M28.2651,291.7578 L41.2651,306.7578" fill="none" style="stroke:#181818;stroke-width:0.5;"/></g><g class="participant participant-head" data-entity-uid="part2" data-qualified-name="FlowServer" id="part2-head"><rect fill="#E2E2F0" height="30.2969" rx="2.5" ry="2.5" style="stroke:#181818;stroke-width:0.5;" width="91.8682" x="72.4863" y="50"/><text fill="#000000" font-family="sans-serif" font-size="14" lengthAdjust="spacing" textLength="77.8682" x="79.4863" y="69.9951">FlowServer</text></g><g class="participant participant-tail" data-entity-uid="part2" data-qualified-name="FlowServer" id="part2-tail"><rect fill="#E2E2F0" height="30.2969" rx="2.5" ry="2.5" style="stroke:#181818;stroke-width:0.5;" width="91.8682" x="72.4863" y="231.9609"/><text fill="#000000" font-family="sans-serif" font-size="14" lengthAdjust="spacing" textLength="77.8682" x="79.4863" y="251.9561">FlowServer</text></g><g class="participant participant-head" data-entity-uid="part3" data-qualified-name="CRDB" id="part3-head"><text fill="#000000" font-family="sans-serif" font-size="14" lengthAdjust="spacing" textLength="39.8877" x="246.1567" y="77.9951">CRDB</text><path d="M251.1006,29 C251.1006,19 269.1006,19 269.1006,19 C269.1006,19 287.1006,19 287.1006,29 L287.1006,55 C287.1006,65 269.1006,65 269.1006,65 C269.1006,65 251.1006,65 251.1006,55 L251.1006,29" fill="#E2E2F0" style="stroke:#181818;stroke-width:0.5;"/><path d="M251.1006,29 C251.1006,39 269.1006,39 269.1006,39 C269.1006,39 287.1006,39 287.1006,29" fill="none" style="stroke:#181818;stroke-width:0.5;"/></g><g class="participant participant-tail" data-entity-uid="part3" data-qualified-name="CRDB" id="part3-tail"><text fill="#000000" font-family="sans-serif" font-size="14" lengthAdjust="spacing" textLength="39.8877" x="246.1567" y="244.9561">CRDB</text><path d="M251.1006,258.2578 C251.1006,248.2578 269.1006,248.2578 269.1006,248.2578 C269.1006,248.2578 287.1006,248.2578 287.1006,258.2578 L287.1006,284.2578 C287.1006,294.2578 269.1006,294.2578 269.1006,294.2578 C269.1006,294.2578 251.1006,294.2578 251.1006,284.2578 L251.1006,258.2578" fill="#E2E2F0" style="stroke:#181818;stroke-width:0.5;"/><path d="M251.1006,258.2578 C251.1006,268.2578 269.1006,268.2578 269.1006,268.2578 C269.1006,268.2578 287.1006,268.2578 287.1006,258.2578" fill="none" style="stroke:#181818;stroke-width:0.5;"/></g><g class="participant participant-head" data-entity-uid="part4" data-qualified-name="Validator" id="part4-head"><rect fill="#E2E2F0" height="30.2969" rx="2.5" ry="2.5" style="stroke:#181818;stroke-width:0.5;" width="113.6201" x="304.23" y="50"/><text fill="#000000" font-family="sans-serif" font-size="14" lengthAdjust="spacing" textLength="99.6201" x="311.23" y="69.9951">Flow Validator</text></g><g class="participant participant-tail" data-entity-uid="part4" data-qualified-name="Validator" id="part4-tail"><rect fill="#E2E2F0" height="30.2969" rx="2.5" ry="2.5" style="stroke:#181818;stroke-width:0.5;" width="113.6201" x="304.23" y="231.9609"/><text fill="#000000" font-family="sans-serif" font-size="14" lengthAdjust="spacing" textLength="99.6201" x="311.23" y="251.9561">Flow Validator</text></g><g class="message" data-entity-1="part1" data-entity-2="part2" id="msg1"><polygon fill="#181818" points="106.4204,108.4297,116.4204,112.4297,106.4204,116.4297,110.4204,112.4297" style="stroke:#181818;stroke-width:1;"/><line style="stroke:#181818;stroke-width:1;" x1="28.2651" x2="112.4204" y1="112.4297" y2="112.4297"/><text fill="#000000" font-family="sans-serif" font-size="13" lengthAdjust="spacing" textLength="66.1553" x="35.2651" y="107.3638">SubmitJob</text></g><g class="message" data-entity-1="part2" data-entity-2="part4" id="msg2"><polygon fill="#181818" points="349.04,137.5625,359.04,141.5625,349.04,145.5625,353.04,141.5625" style="stroke:#181818;stroke-width:1;"/><line style="stroke:#181818;stroke-width:1;" x1="118.4204" x2="355.04" y1="141.5625" y2="141.5625"/><text fill="#000000" font-family="sans-serif" font-size="13" lengthAdjust="spacing" textLength="218.6196" x="125.4204" y="136.4966">validate owner/cluster_id/job_dag</text></g><g class="message" data-entity-1="part2" data-entity-2="part3" id="msg3"><polygon fill="#181818" points="257.1006,181.8281,267.1006,185.8281,257.1006,189.8281,261.1006,185.8281" style="stroke:#181818;stroke-width:1;"/><line style="stroke:#181818;stroke-width:1;" x1="118.4204" x2="263.1006" y1="185.8281" y2="185.8281"/><text fill="#000000" font-family="sans-serif" font-size="13" lengthAdjust="spacing" textLength="94.2881" x="125.4204" y="165.6294">insert flow_job</text><text fill="#000000" font-family="sans-serif" font-size="13" lengthAdjust="spacing" textLength="126.6802" x="125.4204" y="180.7622">status=SUBMITTED</text></g><g class="message" data-entity-1="part2" data-entity-2="part1" id="msg4"><polygon fill="#181818" points="39.2651,210.9609,29.2651,214.9609,39.2651,218.9609,35.2651,214.9609" style="stroke:#181818;stroke-width:1;"/><line style="stroke:#181818;stroke-width:1;stroke-dasharray:2,2;" x1="33.2651" x2="117.4204" y1="214.9609" y2="214.9609"/><text fill="#000000" font-family="sans-serif" font-size="13" lengthAdjust="spacing" textLength="38.1812" x="45.2651" y="209.895">job_id</text></g><?plantuml-src NOvD2u9048Rl-oi6x-5Tg8DQKD0bhLCWepl5nhOhkwF-_NOHIhlDn_EylDYnTL1eHOP5ZuvLfteq30TjfuhSI4v8P6pH4nINCbz1IQJWXbe5nhe4qFys8UPOsEmMQP11DRHlnIVRYiKvG5ypCECy4zZ9a4ixFNWcroYPlcpRI7p-kR5Qq9Jnv1WUuTS4y6uy8mz-Mrtpyx6kz-LAYzvSCOCOg-G7?></g></svg>