<?plantuml 1.2026.1?><svg xmlns="http://www.w3.org/2000/svg" xmlns:xlink="http://www.w3.org/1999/xlink" contentStyleType="text/css" data-diagram-type="SEQUENCE" height="429px" preserveAspectRatio="none" style="width:525px;height:429px;background:#FFFFFF;" version="1.1" viewBox="0 0 525 429" width="525px" zoomAndPan="magnify"><defs/><g><g class="participant-lifeline" data-entity-uid="part1" data-qualified-name="Client" id="part1-lifeline"><g><title>Client</title><rect fill="#000000" fill-opacity="0.00000" height="267.1953" width="8" x="24.2651" y="81.2969"/><line style="stroke:#181818;stroke-width:0.5;stroke-dasharray:5,5;" x1="28" x2="28" y1="81.2969" y2="348.4922"/></g></g><g class="participant-lifeline" data-entity-uid="part2" data-qualified-name="FlowServer" id="part2-lifeline"><g><title>FlowServer</title><rect fill="#000000" fill-opacity="0.00000" height="267.1953" width="8" x="163.0815" y="81.2969"/><line style="stroke:#181818;stroke-width:0.5;stroke-dasharray:5,5;" x1="166.1475" x2="166.1475" y1="81.2969" y2="348.4922"/></g></g><g class="participant-lifeline" data-entity-uid="part3" data-qualified-name="CRDB" id="part3-lifeline"><g><title>CRDB</title><rect fill="#000000" fill-opacity="0.00000" height="267.1953" width="8" x="332.6079" y="81.2969"/><line style="stroke:#181818;stroke-width:0.5;stroke-dasharray:5,5;" x1="335.6641" x2="335.6641" y1="81.2969" y2="348.4922"/></g></g><g class="participant-lifeline" data-entity-uid="part4" data-qualified-name="ExecutorController" id="part4-lifeline"><g><title>Executor Controller</title><rect fill="#000000" fill-opacity="0.00000" height="267.1953" width="8" x="440.4258" y="81.2969"/><line style="stroke:#181818;stroke-width:0.5;stroke-dasharray:5,5;" x1="443.5518" x2="443.5518" y1="81.2969" y2="348.4922"/></g></g><g class="participant participant-head" data-entity-uid="part1" data-qualified-name="Client" id="part1-head"><text fill="#000000" font-family="sans-serif" font-size="14" lengthAdjust="spacing" textLength="40.5303" x="5" y="77.9951">Client</text><ellipse cx="28.2651" cy="13.5" fill="#E2E2F0" rx="8" ry="8" style="stroke:#181818;stroke-width:0.5;"/><path d="M28.2651,21.5 L28.2651,48.5 M15.2651,29.5 L41.2651,29.5 M28.2651,48.5 L15.2651,63.5 M28.2651,48.5 L41.2651,63.5" fill="none" style="stroke:#181818;stroke-width:0.5;"/></g><g class="participant participant-tail" data-entity-uid="part1" data-qualified-name="Client" id="part1-tail"><text fill="#000000" font-family="sans-serif" font-size="14" lengthAdjust="spacing" textLength="40.5303" x="5" y="360.4873">Client</text><ellipse cx="28.2651" cy="372.2891" fill="#E2E2F0" rx="8" ry="8" style="stroke:#181818;stroke-width:0.5;"/><path d="M28.2651,380.2891 L28.2651,407.2891 M15.2651,388.2891 L41.2651,388.2891 M28.2651,407.2891 L15.2651,422.2891 M28.2651,407.2891 L41.2651,422.2891" fill="none" style="stroke:#181818;stroke-width:0.5;"/></g><g class="participant participant-head" data-entity-uid="part2" data-qualified-name="FlowServer" id="part2-head"><rect fill="#E2E2F0" height="30.2969" rx="2.5" ry="2.5" style="stroke:#181818;stroke-width:0.5;" width="91.8682" x="121.1475" y="50"/><text fill="#000000" font-family="sans-serif" font-size="14" lengthAdjust="spacing" textLength="77.8682" x="128.1475" y="69.9951">FlowServer</text></g><g class="participant participant-tail" data-entity-uid="part2" data-qualified-name="FlowServer" id="part2-tail"><rect fill="#E2E2F0" height="30.2969" rx="2.5" ry="2.5" style="stroke:#181818;stroke-width:0.5;" width="91.8682" x="121.1475" y="347.4922"/><text fill="#000000" font-family="sans-serif" font-size="14" lengthAdjust="spacing" textLength="77.8682" x="128.1475" y="367.4873">FlowServer</text></g><g class="participant participant-head" data-entity-uid="part3" data-qualified-name="CRDB" id="part3-head"><text fill="#000000" font-family="sans-serif" font-size="14" lengthAdjust="spacing" textLength="39.8877" x="313.6641" y="77.9951">CRDB</text><path d="M318.6079,29 C318.6079,19 336.6079,19 336.6079,19 C336.6079,19 354.6079,19 354.6079,29 L354.6079,55 C354.6079,65 336.6079,65 336.6079,65 C336.6079,65 318.6079,65 318.6079,55 L318.6079,29" fill="#E2E2F0" style="stroke:#181818;stroke-width:0.5;"/><path d="M318.6079,29 C318.6079,39 336.6079,39 336.6079,39 C336.6079,39 354.6079,39 354.6079,29" fill="none" style="stroke:#181818;stroke-width:0.5;"/></g><g class="participant participant-tail" data-entity-uid="part3" data-qualified-name="CRDB" id="part3-tail"><text fill="#000000" font-family="sans-serif" font-size="14" lengthAdjust="spacing" textLength="39.8877" x="313.6641" y="360.4873">CRDB</text><path d="M318.6079,373.7891 C318.6079,363.7891 336.6079,363.7891 336.6079,363.7891 C336.6079,363.7891 354.6079,363.7891 354.6079,373.7891 L354.6079,399.7891 C354.6079,409.7891 336.6079,409.7891 336.6079,409.7891 C336.6079,409.7891 318.6079,409.7891 318.6079,399.7891 L318.6079,373.7891" fill="#E2E2F0" style="stroke:#181818;stroke-width:0.5;"/><path d="M318.6079,373.7891 C318.6079,383.7891 336.6079,383.7891 336.6079,383.7891 C336.6079,383.7891 354.6079,383.7891 354.6079,373.7891" fill="none" style="stroke:#181818;stroke-width:0.5;"/></g><g class="participant participant-head" data-entity-uid="part4" data-qualified-name="ExecutorController" id="part4-head"><rect fill="#E2E2F0" height="30.2969" rx="2.5" ry="2.5" style="stroke:#181818;stroke-width:0.5;" width="149.748" x="369.5518" y="50"/><text fill="#000000" font-family="sans-serif" font-size="14" lengthAdjust="spacing" textLength="135.748" x="376.5518" y="69.9951">Executor Controller</text></g><g class="participant participant-tail" data-entity-uid="part4" data-qualified-name="ExecutorController" id="part4-tail"><rect fill="#E2E2F0" height="30.2969" rx="2.5" ry="2.5" style="stroke:#181818;stroke-width:0.5;" width="149.748" x="369.5518" y="347.4922"/><text fill="#000000" font-family="sans-serif" font-size="14" lengthAdjust="spacing" textLength="135.748" x="376.5518" y="367.4873">Executor Controller</text></g><g class="message" data-entity-1="part1" data-entity-2="part2" id="msg1"><polygon fill="#181818" points="155.0815,108.4297,165.0815,112.4297,155.0815,116.4297,159.0815,112.4297" style="stroke:#181818;stroke-width:1;"/><line style="stroke:#181818;stroke-width:1;" x1="28.2651" x2="161.0815" y1="112.4297" y2="112.4297"/><text fill="#000000" font-family="sans-serif" font-size="13" lengthAdjust="spacing" textLength="51.7969" x="35.2651" y="107.3638">StartJob</text></g><g class="message" data-entity-1="part2" data-entity-2="part3" id="msg2"><polygon fill="#181818" points="324.6079,152.6953,334.6079,156.6953,324.6079,160.6953,328.6079,156.6953" style="stroke:#181818;stroke-width:1;"/><line style="stroke:#181818;stroke-width:1;" x1="167.0815" x2="330.6079" y1="156.6953" y2="156.6953"/><text fill="#000000" font-family="sans-serif" font-size="13" lengthAdjust="spacing" textLength="121.2339" x="174.0815" y="136.4966">claim starter lease</text><text fill="#000000" font-family="sans-serif" font-size="13" lengthAdjust="spacing" textLength="135.2305" x="174.0815" y="151.6294">(update if claimable)</text></g><g class="message" data-entity-1="part2" data-entity-2="part2" id="msg3"><line style="stroke:#181818;stroke-width:1;" x1="167.0815" x2="209.0815" y1="185.8281" y2="185.8281"/><line style="stroke:#181818;stroke-width:1;" x1="209.0815" x2="209.0815" y1="185.8281" y2="198.8281"/><line style="stroke:#181818;stroke-width:1;" x1="168.0815" x2="209.0815" y1="198.8281" y2="198.8281"/><polygon fill="#181818" points="178.0815,194.8281,168.0815,198.8281,178.0815,202.8281,174.0815,198.8281" style="stroke:#181818;stroke-width:1;"/><text fill="#000000" font-family="sans-serif" font-size="13" lengthAdjust="spacing" textLength="150.1411" x="174.0815" y="180.7622">build BFS launch levels</text></g><g class="message" data-entity-1="part2" data-entity-2="part4" id="msg4"><polygon fill="#181818" points="432.4258,239.0938,442.4258,243.0938,432.4258,247.0938,436.4258,243.0938" style="stroke:#181818;stroke-width:1;"/><line style="stroke:#181818;stroke-width:1;" x1="167.0815" x2="438.4258" y1="243.0938" y2="243.0938"/><text fill="#000000" font-family="sans-serif" font-size="13" lengthAdjust="spacing" textLength="113.9722" x="174.0815" y="222.895">launch each level</text><text fill="#000000" font-family="sans-serif" font-size="13" lengthAdjust="spacing" textLength="142.873" x="174.0815" y="238.0278">(bounded parallelism)</text></g><g class="message" data-entity-1="part2" data-entity-2="part3" id="msg5"><polygon fill="#181818" points="324.6079,268.2266,334.6079,272.2266,324.6079,276.2266,328.6079,272.2266" style="stroke:#181818;stroke-width:1;"/><line style="stroke:#181818;stroke-width:1;" x1="167.0815" x2="330.6079" y1="272.2266" y2="272.2266"/><text fill="#000000" font-family="sans-serif" font-size="13" lengthAdjust="spacing" textLength="145.5264" x="174.0815" y="267.1606">refresh lease per level</text></g><g class="message" data-entity-1="part2" data-entity-2="part3" id="msg6"><polygon fill="#181818" points="324.6079,297.3594,334.6079,301.3594,324.6079,305.3594,328.6079,301.3594" style="stroke:#181818;stroke-width:1;"/><line style="stroke:#181818;stroke-width:1;" x1="167.0815" x2="330.6079" y1="301.3594" y2="301.3594"/><text fill="#000000" font-family="sans-serif" font-size="13" lengthAdjust="spacing" textLength="97.9189" x="174.0815" y="296.2935">mark STARTED</text></g><g class="message" data-entity-1="part2" data-entity-2="part1" id="msg7"><polygon fill="#181818" points="39.2651,326.4922,29.2651,330.4922,39.2651,334.4922,35.2651,330.4922" style="stroke:#181818;stroke-width:1;"/><line style="stroke:#181818;stroke-width:1;stroke-dasharray:2,2;" x1="33.2651" x2="166.0815" y1="330.4922" y2="330.4922"/><text fill="#000000" font-family="sans-serif" font-size="13" lengthAdjust="spacing" textLength="114.8164" x="45.2651" y="325.4263">StartJobResponse</text></g><?plantuml-src RP2xRW8n44LxVyM8AXJv0Ggay2eeTobfnjv1M9crhR4D-VpCia6mXFRwt8S7NOa2Q_OKYaaenJkVC1JOSRos91SIqs51YvbWtMnM4sYs_I5NRman58dC93F037Vz8Hipbi3dyYaR5j0M3Tn7QvvKPOOkVNMCleSyCAepwOnZ-AX9Dn7uq_YEbcd-ufzqsEgvWzMk1SOQt5c3BiJvnV9_j5h_38HtbzRRM4D77UWfK37skP-_dozq4ihdSJYasnSquptSetn3U_Xg3jlDX1YGyNYFSpMKKmoPVW40?></g></svg>