<?plantuml 1.2026.1?><svg xmlns="http://www.w3.org/2000/svg" xmlns:xlink="http://www.w3.org/1999/xlink" contentStyleType="text/css" data-diagram-type="STATE" height="734px" preserveAspectRatio="none" style="width:259px;height:734px;background:#FFFFFF;" version="1.1" viewBox="0 0 259 734" width="259px" zoomAndPan="magnify"><defs/><g><ellipse cx="122.35" cy="16" fill="#222222" rx="10" ry="10" style="stroke:#222222;stroke-width:1;"/><rect fill="#F1F1F1" height="40" rx="12.5" ry="12.5" style="stroke:#181818;stroke-width:0.5;" width="179.1621" x="32.76" y="103"/><text fill="#000000" font-family="sans-serif" font-size="14" lengthAdjust="spacing" textLength="169.1621" x="37.76" y="127.8467">JOB_STATUS_UNKNOWN</text><rect fill="#F1F1F1" height="40" rx="12.5" ry="12.5" style="stroke:#181818;stroke-width:0.5;" width="185.1299" x="29.78" y="220"/><text fill="#000000" font-family="sans-serif" font-size="14" lengthAdjust="spacing" textLength="175.1299" x="34.78" y="244.8467">JOB_STATUS_SUBMITTED</text><rect fill="#F1F1F1" height="40" rx="12.5" ry="12.5" style="stroke:#181818;stroke-width:0.5;" width="169.5576" x="37.57" y="337"/><text fill="#000000" font-family="sans-serif" font-size="14" lengthAdjust="spacing" textLength="159.5576" x="42.57" y="361.8467">JOB_STATUS_CREATED</text><rect fill="#F1F1F1" height="40" rx="12.5" ry="12.5" style="stroke:#181818;stroke-width:0.5;" width="168.375" x="38.16" y="454"/><text fill="#000000" font-family="sans-serif" font-size="14" lengthAdjust="spacing" textLength="158.375" x="43.16" y="478.8467">JOB_STATUS_STARTED</text><rect fill="#F1F1F1" height="40" rx="12.5" ry="12.5" style="stroke:#181818;stroke-width:0.5;" width="230.6914" x="7" y="571"/><text fill="#000000" font-family="sans-serif" font-size="14" lengthAdjust="spacing" textLength="220.6914" x="12" y="595.8467">JOB_STATUS_CANCEL_PENDING</text><rect fill="#F1F1F1" height="40" rx="12.5" ry="12.5" style="stroke:#181818;stroke-width:0.5;" width="187.126" x="28.78" y="688"/><text fill="#000000" font-family="sans-serif" font-size="14" lengthAdjust="spacing" textLength="177.126" x="33.78" y="712.8467">JOB_STATUS_CANCELLED</text><!--link *start* to JOB_STATUS_UNKNOWN--><g class="link" data-entity-1="ent0002" data-entity-2="ent0003" data-link-type="dependency" data-source-line="3" id="lnk4"><path d="M122.35,26.32 C122.35,43.38 122.35,73.98 122.35,96.64" fill="none" id="*start*-to-JOB_STATUS_UNKNOWN" style="stroke:#181818;stroke-width:1;"/><polygon fill="#181818" points="122.35,102.64,126.35,93.64,122.35,97.64,118.35,93.64,122.35,102.64" style="stroke:#181818;stroke-width:1;"/><text fill="#000000" font-family="sans-serif" font-size="13" lengthAdjust="spacing" textLength="100.2295" x="123.35" y="69.0669">internal/default</text></g><!--link JOB_STATUS_UNKNOWN to JOB_STATUS_SUBMITTED--><g class="link" data-entity-1="ent0003" data-entity-2="ent0005" data-link-type="dependency" data-source-line="4" id="lnk6"><path d="M122.35,143.25 C122.35,164.48 122.35,192.44 122.35,213.69" fill="none" id="JOB_STATUS_UNKNOWN-to-JOB_STATUS_SUBMITTED" style="stroke:#181818;stroke-width:1;"/><polygon fill="#181818" points="122.35,219.69,126.35,210.69,122.35,214.69,118.35,210.69,122.35,219.69" style="stroke:#181818;stroke-width:1;"/><text fill="#000000" font-family="sans-serif" font-size="13" lengthAdjust="spacing" textLength="66.1553" x="123.35" y="186.0669">SubmitJob</text></g><!--link JOB_STATUS_SUBMITTED to JOB_STATUS_CREATED--><g class="link" data-entity-1="ent0005" data-entity-2="ent0007" data-link-type="dependency" data-source-line="5" id="lnk8"><path d="M122.35,260.25 C122.35,281.48 122.35,309.44 122.35,330.69" fill="none" id="JOB_STATUS_SUBMITTED-to-JOB_STATUS_CREATED" style="stroke:#181818;stroke-width:1;"/><polygon fill="#181818" points="122.35,336.69,126.35,327.69,122.35,331.69,118.35,327.69,122.35,336.69" style="stroke:#181818;stroke-width:1;"/><text fill="#000000" font-family="sans-serif" font-size="13" lengthAdjust="spacing" textLength="128.4385" x="123.35" y="303.0669">create loop success</text></g><!--link JOB_STATUS_CREATED to JOB_STATUS_STARTED--><g class="link" data-entity-1="ent0007" data-entity-2="ent0009" data-link-type="dependency" data-source-line="6" id="lnk10"><path d="M122.35,377.25 C122.35,398.48 122.35,426.44 122.35,447.69" fill="none" id="JOB_STATUS_CREATED-to-JOB_STATUS_STARTED" style="stroke:#181818;stroke-width:1;"/><polygon fill="#181818" points="122.35,453.69,126.35,444.69,122.35,448.69,118.35,444.69,122.35,453.69" style="stroke:#181818;stroke-width:1;"/><text fill="#000000" font-family="sans-serif" font-size="13" lengthAdjust="spacing" textLength="51.7969" x="123.35" y="420.0669">StartJob</text></g><!--link JOB_STATUS_STARTED to JOB_STATUS_CANCEL_PENDING--><g class="link" data-entity-1="ent0009" data-entity-2="ent0011" data-link-type="dependency" data-source-line="7" id="lnk12"><path d="M122.35,494.25 C122.35,515.48 122.35,543.44 122.35,564.69" fill="none" id="JOB_STATUS_STARTED-to-JOB_STATUS_CANCEL_PENDING" style="stroke:#181818;stroke-width:1;"/><polygon fill="#181818" points="122.35,570.69,126.35,561.69,122.35,565.69,118.35,561.69,122.35,570.69" style="stroke:#181818;stroke-width:1;"/><text fill="#000000" font-family="sans-serif" font-size="13" lengthAdjust="spacing" textLength="64.0796" x="123.35" y="537.0669">CancelJob</text></g><!--link JOB_STATUS_CANCEL_PENDING to JOB_STATUS_CANCELLED--><g class="link" data-entity-1="ent0011" data-entity-2="ent0013" data-link-type="dependency" data-source-line="8" id="lnk14"><path d="M122.35,611.25 C122.35,632.48 122.35,660.44 122.35,681.69" fill="none" id="JOB_STATUS_CANCEL_PENDING-to-JOB_STATUS_CANCELLED" style="stroke:#181818;stroke-width:1;"/><polygon fill="#181818" points="122.35,687.69,126.35,678.69,122.35,682.69,118.35,678.69,122.35,687.69" style="stroke:#181818;stroke-width:1;"/><text fill="#000000" font-family="sans-serif" font-size="13" lengthAdjust="spacing" textLength="124.5854" x="123.35" y="654.0669">finalize cancel loop</text></g><?plantuml-src RP0z3u8m443t_egRJOYxWqc1ng1O39Gu64DAEM8JlaBBeBzUWaoL-TwxbxkNhX2m7UmRAZHgr8FLVKV8O_S4ppl2EV6BJ52HPqNEBpovSpY0xYoEdMps5TPoQYpPe1mvo_rh90GBPpsRobRRSr-IJS0nWvJHdwT6b1QXwVi1pAGK6aCsGBSiQBfshHp_iklKZL8UiBYuCHv6_3IxWUmKDexiK9ixuYLTw_bT-eEWbZtB3Ly0?></g></svg>