<svg xmlns="http://www.w3.org/2000/svg" width="600" height="420" viewBox="0 0 600 420">
  <rect width="100%" height="100%" fill="#ffffff" />

  <defs>
    <marker id="arrow" markerWidth="10" markerHeight="10" refX="9" refY="3" orient="auto" markerUnits="strokeWidth">
      <path d="M0,0 L0,6 L9,3 z" fill="#333" />
    </marker>
  </defs>

  <rect x="100" y="50" width="140" height="80" fill="none" stroke="#333" stroke-width="2" />
  <text x="170" y="85" font-family="Arial" font-size="14" text-anchor="middle" font-weight="bold">Even/Odd</text>
  <text x="170" y="105" font-family="Arial" font-size="14" text-anchor="middle" font-weight="bold">Sorter</text>

  <rect x="360" y="50" width="140" height="80" fill="none" stroke="#333" stroke-width="2" />
  <text x="430" y="85" font-family="Arial" font-size="14" text-anchor="middle" font-weight="bold">Even/Odd</text>
  <text x="430" y="105" font-family="Arial" font-size="14" text-anchor="middle" font-weight="bold">Verifier</text>

  <rect x="200" y="240" width="200" height="50" fill="none" stroke="#333" stroke-width="2" />
  <text x="300" y="272" font-family="Arial" font-size="14" text-anchor="middle" font-weight="bold">RPC OpNet Bridge</text>

  <line x1="240" y1="75" x2="350" y2="75" stroke="#0055aa" stroke-width="2" marker-end="url(#arrow)" />
  <text x="295" y="70" font-family="Arial" font-size="10" text-anchor="middle">even</text>

  <line x1="240" y1="105" x2="350" y2="105" stroke="#0055aa" stroke-width="2" marker-end="url(#arrow)" />
  <text x="295" y="100" font-family="Arial" font-size="10" text-anchor="middle">odd</text>

  <path d="M 500 90 L 540 90 L 540 265 L 400 265" fill="none" stroke="#0055aa" stroke-width="2" marker-end="url(#arrow)" />
  <text x="510" y="85" font-family="Arial" font-size="10">output</text>

  <path d="M 200 265 L 60 265 L 60 90 L 90 90" fill="none" stroke="#0055aa" stroke-width="2" marker-end="url(#arrow)" />
  <text x="65" y="85" font-family="Arial" font-size="10">input</text>

  <line x1="285" y1="340" x2="285" y2="295" stroke="#333" stroke-width="2" marker-end="url(#arrow)" />
  <line x1="315" y1="290" x2="315" y2="335" stroke="#333" stroke-width="2" marker-end="url(#arrow)" />

  <text x="300" y="370" font-family="Arial" font-size="14" text-anchor="middle" font-weight="bold">RPC</text>
</svg>
