<?plantuml 1.2026.1?><svg xmlns="http://www.w3.org/2000/svg" xmlns:xlink="http://www.w3.org/1999/xlink" contentStyleType="text/css" data-diagram-type="DESCRIPTION" height="129px" preserveAspectRatio="none" style="width:1183px;height:129px;background:#FFFFFF;" version="1.1" viewBox="0 0 1183 129" width="1183px" zoomAndPan="magnify"><defs/><g><!--entity RpcCaller--><g class="entity" data-qualified-name="RpcCaller" data-source-line="2" id="ent0002"><ellipse cx="75.8291" cy="56.5" fill="#F1F1F1" rx="8" ry="8" style="stroke:#181818;stroke-width:0.5;"/><path d="M75.8291,64.5 L75.8291,91.5 M62.8291,72.5 L88.8291,72.5 M75.8291,91.5 L62.8291,106.5 M75.8291,91.5 L88.8291,106.5" fill="none" style="stroke:#181818;stroke-width:0.5;"/><text fill="#000000" font-family="sans-serif" font-size="14" lengthAdjust="spacing" textLength="139.6582" x="6" y="120.9951">Endpoint RPC Caller</text></g><!--entity Bridge--><g class="entity" data-qualified-name="Bridge" data-source-line="3" id="ent0003"><rect fill="#F1F1F1" height="46.2969" rx="2.5" ry="2.5" style="stroke:#181818;stroke-width:0.5;" width="141.3701" x="296.66" y="63"/><rect fill="#F1F1F1" height="10" style="stroke:#181818;stroke-width:0.5;" width="15" x="418.0301" y="68"/><rect fill="#F1F1F1" height="2" style="stroke:#181818;stroke-width:0.5;" width="4" x="416.0301" y="70"/><rect fill="#F1F1F1" height="2" style="stroke:#181818;stroke-width:0.5;" width="4" x="416.0301" y="74"/><text fill="#000000" font-family="sans-serif" font-size="14" lengthAdjust="spacing" textLength="101.3701" x="311.66" y="95.9951">Bridge Replica</text></g><!--entity Injector--><g class="entity" data-qualified-name="Injector" data-source-line="4" id="ent0004"><rect fill="#F1F1F1" height="46.2969" rx="2.5" ry="2.5" style="stroke:#181818;stroke-width:0.5;" width="126.1328" x="499.03" y="7"/><rect fill="#F1F1F1" height="10" style="stroke:#181818;stroke-width:0.5;" width="15" x="605.1628" y="12"/><rect fill="#F1F1F1" height="2" style="stroke:#181818;stroke-width:0.5;" width="4" x="603.1628" y="14"/><rect fill="#F1F1F1" height="2" style="stroke:#181818;stroke-width:0.5;" width="4" x="603.1628" y="18"/><text fill="#000000" font-family="sans-serif" font-size="14" lengthAdjust="spacing" textLength="86.1328" x="514.03" y="39.9951">Injector Link</text></g><!--entity OpA--><g class="entity" data-qualified-name="OpA" data-source-line="5" id="ent0005"><rect fill="#F1F1F1" height="46.2969" rx="2.5" ry="2.5" style="stroke:#181818;stroke-width:0.5;" width="116.6924" x="686.16" y="7"/><rect fill="#F1F1F1" height="10" style="stroke:#181818;stroke-width:0.5;" width="15" x="782.8524" y="12"/><rect fill="#F1F1F1" height="2" style="stroke:#181818;stroke-width:0.5;" width="4" x="780.8524" y="14"/><rect fill="#F1F1F1" height="2" style="stroke:#181818;stroke-width:0.5;" width="4" x="780.8524" y="18"/><text fill="#000000" font-family="sans-serif" font-size="14" lengthAdjust="spacing" textLength="76.6924" x="701.16" y="39.9951">Operator A</text></g><!--entity OpB--><g class="entity" data-qualified-name="OpB" data-source-line="6" id="ent0006"><rect fill="#F1F1F1" height="46.2969" rx="2.5" ry="2.5" style="stroke:#181818;stroke-width:0.5;" width="116.7197" x="863.85" y="7"/><rect fill="#F1F1F1" height="10" style="stroke:#181818;stroke-width:0.5;" width="15" x="960.5697" y="12"/><rect fill="#F1F1F1" height="2" style="stroke:#181818;stroke-width:0.5;" width="4" x="958.5697" y="14"/><rect fill="#F1F1F1" height="2" style="stroke:#181818;stroke-width:0.5;" width="4" x="958.5697" y="18"/><text fill="#000000" font-family="sans-serif" font-size="14" lengthAdjust="spacing" textLength="76.7197" x="878.85" y="39.9951">Operator B</text></g><!--entity Deadend--><g class="entity" data-qualified-name="Deadend" data-source-line="7" id="ent0007"><rect fill="#F1F1F1" height="46.2969" rx="2.5" ry="2.5" style="stroke:#181818;stroke-width:0.5;" width="136.3525" x="1041.57" y="63"/><rect fill="#F1F1F1" height="10" style="stroke:#181818;stroke-width:0.5;" width="15" x="1157.9225" y="68"/><rect fill="#F1F1F1" height="2" style="stroke:#181818;stroke-width:0.5;" width="4" x="1155.9225" y="70"/><rect fill="#F1F1F1" height="2" style="stroke:#181818;stroke-width:0.5;" width="4" x="1155.9225" y="74"/><text fill="#000000" font-family="sans-serif" font-size="14" lengthAdjust="spacing" textLength="96.3525" x="1056.57" y="95.9951">Deadend Link</text></g><!--link RpcCaller to Bridge--><g class="link" data-entity-1="ent0002" data-entity-2="ent0003" data-link-type="dependency" data-source-line="9" id="lnk8"><path d="M145.81,86.15 C191.3,86.15 244.7,86.15 290.39,86.15" fill="none" id="RpcCaller-to-Bridge" style="stroke:#181818;stroke-width:1;"/><polygon fill="#181818" points="296.39,86.15,287.39,82.15,291.39,86.15,287.39,90.15,296.39,86.15" style="stroke:#181818;stroke-width:1;"/><text fill="#000000" font-family="sans-serif" font-size="13" lengthAdjust="spacing" textLength="79.7837" x="181.66" y="82.2169">RPC request</text></g><!--link Bridge to RpcCaller--><g class="link" data-entity-1="ent0003" data-entity-2="ent0002" data-link-type="dependency" data-source-line="15" id="lnk14"><path d="M296.23,106.02 C286.37,108.14 276.31,109.96 266.66,111.15 C226.52,116.11 215.79,116.15 175.66,111.15 C166,109.95 161.7923,109.3883 151.9323,107.2383" fill="none" id="Bridge-to-RpcCaller" style="stroke:#181818;stroke-width:1;"/><polygon fill="#181818" points="146.07,105.96,154.0112,111.7856,150.9552,107.0252,155.7156,103.9693,146.07,105.96" style="stroke:#181818;stroke-width:1;"/><text fill="#000000" font-family="sans-serif" font-size="13" lengthAdjust="spacing" textLength="89.4131" x="176.66" y="107.2169">RPC response</text></g><!--link Bridge to Injector--><g class="link" data-entity-1="ent0003" data-entity-2="ent0004" data-link-type="dependency" data-source-line="10" id="lnk9"><path d="M438.48,65.78 C458.17,60.05 473.6982,55.5437 492.9082,49.9637" fill="none" id="Bridge-to-Injector" style="stroke:#181818;stroke-width:1;"/><polygon fill="#181818" points="498.67,48.29,488.9115,46.9593,493.8685,49.6847,491.143,54.6417,498.67,48.29" style="stroke:#181818;stroke-width:1;"/></g><!--link Injector to OpA--><g class="link" data-entity-1="ent0004" data-entity-2="ent0005" data-link-type="dependency" data-source-line="11" id="lnk10"><path d="M625.44,30.15 C644.99,30.15 660.48,30.15 679.71,30.15" fill="none" id="Injector-to-OpA" style="stroke:#181818;stroke-width:1;"/><polygon fill="#181818" points="685.71,30.15,676.71,26.15,680.71,30.15,676.71,34.15,685.71,30.15" style="stroke:#181818;stroke-width:1;"/></g><!--link OpA to OpB--><g class="link" data-entity-1="ent0005" data-entity-2="ent0006" data-link-type="dependency" data-source-line="12" id="lnk11"><path d="M803.04,30.15 C822.46,30.15 838.13,30.15 857.55,30.15" fill="none" id="OpA-to-OpB" style="stroke:#181818;stroke-width:1;"/><polygon fill="#181818" points="863.55,30.15,854.55,26.15,858.55,30.15,854.55,34.15,863.55,30.15" style="stroke:#181818;stroke-width:1;"/></g><!--link OpB to Deadend--><g class="link" data-entity-1="ent0006" data-entity-2="ent0007" data-link-type="dependency" data-source-line="13" id="lnk12"><path d="M980.9,47.56 C1000.05,53.34 1015.7858,58.0969 1035.6058,64.0769" fill="none" id="OpB-to-Deadend" style="stroke:#181818;stroke-width:1;"/><polygon fill="#181818" points="1041.35,65.81,1033.8891,59.3808,1036.5631,64.3657,1031.5782,67.0398,1041.35,65.81" style="stroke:#181818;stroke-width:1;"/></g><!--link Deadend to Bridge--><g class="link" data-entity-1="ent0007" data-entity-2="ent0003" data-link-type="dependency" data-source-line="14" id="lnk13"><path d="M1041.08,96.97 C1006.01,101.68 962.41,106.15 923.21,106.15 C561.09,106.15 561.09,106.15 561.09,106.15 C520.22,106.15 480.6701,102.4223 444.1501,97.6823" fill="none" id="Deadend-to-Bridge" style="stroke:#181818;stroke-width:1;"/><polygon fill="#181818" points="438.2,96.91,446.6103,102.0351,443.1584,97.5536,447.64,94.1017,438.2,96.91" style="stroke:#181818;stroke-width:1;"/></g><?plantuml-src ROz13i8W44Ntd6BIVI_WmgHK5oOcDRq1WR6Y20XuVu52oy85oV3_o_m_2ky1WW4dbqS08Hto88qcZ0VZe3jhOOtK0URR22DJ2bq7pCDi-VeZtBojqHYHZZef5eGPhPASPMwLMkYYdvXtNwL-PQOgBJLPT2nHGqOcE_nrQN5fwvwG2THY3oW28LjhwFjZwGQ7V9l3pnTz84LC_jPhgvpKL2M-CjCuqppNa9g-9xGxzmOrriVQ7dy0?></g></svg>